<svg width="36" height="30" viewBox="0 0 36 30" fill="none" xmlns="http://www.w3.org/2000/svg">
<path d="M34.6663 15.0003C34.6663 8.71533 34.6663 5.57199 32.713 3.62033C30.7597 1.66866 27.618 1.66699 21.333 1.66699H14.6663C8.38134 1.66699 5.23801 1.66699 3.28634 3.62033C1.33467 5.57366 1.33301 8.71533 1.33301 15.0003C1.33301 21.2853 1.33301 24.4287 3.28634 26.3803C5.23967 28.332 8.38134 28.3337 14.6663 28.3337H21.333C27.618 28.3337 30.7613 28.3337 32.713 26.3803C33.803 25.292 34.2847 23.8337 34.4963 21.667M14.6663 21.667H7.99967M21.333 21.667H18.833M1.33301 11.667H9.66634M34.6663 11.667H16.333" stroke="black" stroke-width="2.5" stroke-linecap="round"/>
</svg>
