<svg width="40" height="40" viewBox="0 0 40 40" fill="none" xmlns="http://www.w3.org/2000/svg">
<path d="M34.9997 20.3667C34.9997 11.2167 27.8997 5 19.9997 5C12.183 5 4.99967 11.0833 4.99967 20.4667C3.99967 21.0333 3.33301 22.1 3.33301 23.3333V26.6667C3.33301 28.5 4.83301 30 6.66634 30H8.33301V19.8333C8.33301 13.3833 13.5497 8.16667 19.9997 8.16667C26.4497 8.16667 31.6663 13.3833 31.6663 19.8333V31.6667H18.333V35H31.6663C33.4997 35 34.9997 33.5 34.9997 31.6667V29.6333C35.983 29.1167 36.6663 28.1 36.6663 26.9V23.0667C36.6663 21.9 35.983 20.8833 34.9997 20.3667Z" fill="black"/>
<path d="M14.9997 23.3333C15.9201 23.3333 16.6663 22.5871 16.6663 21.6667C16.6663 20.7462 15.9201 20 14.9997 20C14.0792 20 13.333 20.7462 13.333 21.6667C13.333 22.5871 14.0792 23.3333 14.9997 23.3333Z" fill="black"/>
<path d="M24.9997 23.3333C25.9201 23.3333 26.6663 22.5871 26.6663 21.6667C26.6663 20.7462 25.9201 20 24.9997 20C24.0792 20 23.333 20.7462 23.333 21.6667C23.333 22.5871 24.0792 23.3333 24.9997 23.3333Z" fill="black"/>
<path d="M29.9998 18.3833C29.6024 16.0402 28.3888 13.9133 26.5739 12.379C24.7589 10.8447 22.4597 10.002 20.0831 10C15.0331 10 9.59979 14.1833 10.0331 20.75C12.0888 19.9096 13.9043 18.5733 15.3177 16.8604C16.7311 15.1474 17.6984 13.1111 18.1331 10.9333C20.3165 15.3167 24.7998 18.3333 29.9998 18.3833Z" fill="black"/>
</svg>
