<svg width="36" height="36" viewBox="0 0 36 36" fill="none" xmlns="http://www.w3.org/2000/svg">
<path d="M17.9997 34.6668C27.2047 34.6668 34.6663 27.2052 34.6663 18.0002C34.6663 8.79516 27.2047 1.3335 17.9997 1.3335C8.79467 1.3335 1.33301 8.79516 1.33301 18.0002C1.33301 27.2052 8.79467 34.6668 17.9997 34.6668Z" stroke="black" stroke-width="2.5"/>
<path d="M1.33301 15.3669C3.84579 14.1808 5.70412 14.0155 6.90801 14.8711C8.71384 16.1544 8.93968 21.3869 13.048 18.8869C17.1563 16.3869 11.2888 15.3669 12.5622 11.7452C13.8355 8.12275 18.0063 10.9369 18.4205 6.96941C18.6977 4.32441 15.5338 3.31219 8.92884 3.93275" stroke="black" stroke-width="2.5"/>
<path d="M27.9993 4.66699C23.2376 8.82421 21.5745 11.3345 23.0101 12.1978C25.1634 13.4937 26.0768 11.6695 28.7051 12.1978C31.3334 12.7262 30.7634 16.2887 29.3818 16.2887C28.0001 16.2887 20.8409 15.377 21.2018 19.5545C21.5626 23.732 25.8684 24.3503 25.8684 26.6845C25.8684 28.24 24.9157 30.6214 23.0101 33.8287M3.08594 25.4387C3.65398 25.1887 4.22513 24.9459 4.79927 24.7103C8.00483 23.4159 10.3837 23.1106 11.9359 23.7945C14.6793 25.0053 13.6243 27.4503 14.4843 28.3512C15.3426 29.252 17.4893 28.9903 17.4893 30.7037C17.4893 31.8464 17.1054 33.137 16.3376 34.5753" stroke="black" stroke-width="2.5" stroke-linecap="round"/>
</svg>
