<svg width="40" height="40" viewBox="0 0 40 40" fill="none" xmlns="http://www.w3.org/2000/svg">
<path d="M38.4712 9.06283H30.6198C30.5389 9.06283 30.4588 9.04684 30.384 9.0158C30.3093 8.98475 30.2415 8.93924 30.1844 8.8819C30.1273 8.82455 30.0821 8.7565 30.0514 8.68164C30.0207 8.60678 30.0051 8.52659 30.0055 8.44568C30.0063 8.29678 30.06 8.153 30.1569 8.03997L35.7569 1.63997C35.8112 1.57651 35.8787 1.52571 35.9547 1.49116C36.0308 1.45661 36.1134 1.43913 36.1969 1.43997C36.5169 1.43997 36.7769 1.70283 36.7769 2.02283V11.6028M25.2855 11.6H18.5141V10.1571C18.5148 9.66348 18.6591 9.18071 18.9296 8.76773C19.2 8.35475 19.5847 8.02941 20.0369 7.8314L23.8084 6.18283C24.3302 5.95561 24.7578 5.5554 25.019 5.04969C25.2802 4.54397 25.359 3.96366 25.2423 3.40658C25.1255 2.8495 24.8202 2.34972 24.3779 1.99148C23.9356 1.63325 23.3833 1.43846 22.8141 1.43997H21.0541C20.5289 1.44055 20.0167 1.60374 19.588 1.90711C19.1593 2.21049 18.835 2.63916 18.6598 3.13426M21.4455 37.3285C22.9266 38.2823 24.6896 38.7003 26.4413 38.5132C28.1929 38.3261 29.8278 37.545 31.0741 36.3L32.1598 35.2143C32.6413 34.7275 32.9115 34.0704 32.9115 33.3857C32.9115 32.701 32.6413 32.0439 32.1598 31.5571L27.5884 27.0143C27.1064 26.5345 26.4541 26.2651 25.7741 26.2651C25.094 26.2651 24.4417 26.5345 23.9598 27.0143C23.473 27.4958 22.8159 27.7659 22.1312 27.7659C21.4465 27.7659 20.7894 27.4958 20.3026 27.0143L13.0169 19.7285C12.5354 19.2418 12.2653 18.5847 12.2653 17.9C12.2653 17.2152 12.5354 16.5582 13.0169 16.0714C13.4967 15.5895 13.7661 14.9371 13.7661 14.2571C13.7661 13.5771 13.4967 12.9247 13.0169 12.4428L8.61693 7.8714C8.13016 7.38984 7.47308 7.11973 6.78836 7.11973C6.10363 7.11973 5.44655 7.38984 4.95979 7.8714L3.87407 8.95711C2.60666 10.1858 1.79896 11.812 1.58578 13.5643C1.37259 15.3166 1.76681 17.089 2.70264 18.5857C7.68306 25.9836 14.0476 32.3481 21.4455 37.3285Z" stroke="black" stroke-width="2.5" stroke-linecap="round" stroke-linejoin="round"/>
</svg>
