<svg width="34" height="34" viewBox="0 0 34 34" fill="none" xmlns="http://www.w3.org/2000/svg">
<path d="M33.5397 16.873C33.5725 19.0452 33.1772 21.2026 32.3762 23.2219C31.5753 25.2413 30.3845 27.0832 28.8718 28.6424C27.359 30.2015 25.554 31.4475 23.5597 32.3091C21.5655 33.1707 19.421 33.631 17.2488 33.6638C15.0767 33.6967 12.9193 33.3013 10.8999 32.5004C8.88052 31.6995 7.03866 30.5087 5.47948 28.9959C3.92031 27.4832 2.67436 25.6781 1.81277 23.6839C0.951188 21.6896 0.490838 19.5452 0.458008 17.373V3.33967C0.458008 2.94469 0.535833 2.55358 0.687036 2.18869C0.838239 1.82379 1.05986 1.49227 1.33923 1.21305C1.6186 0.933834 1.95025 0.7124 2.31523 0.561399C2.68021 0.410397 3.07136 0.332789 3.46634 0.333008H16.9997C19.1717 0.333008 21.3225 0.760828 23.3293 1.59204C25.336 2.42325 27.1593 3.64158 28.6952 5.17746C30.2311 6.71334 31.4494 8.5367 32.2806 10.5434C33.1119 12.5501 33.5397 14.7009 33.5397 16.873ZM6.47301 4.95467C6.47301 4.15301 5.77134 3.33967 4.96967 3.33967C4.17801 3.33967 3.46634 4.14301 3.46634 4.95467V18.3163C3.46634 20.423 4.90967 23.4097 7.00467 25.8347C8.17344 27.2504 9.63781 28.3932 11.2951 29.1829C12.9523 29.9727 14.7623 30.3902 16.598 30.4063C21.6597 30.4063 25.188 28.473 27.4247 25.7947C29.6297 23.148 30.5213 19.8813 30.5213 17.2647C30.5213 14.648 29.6097 11.2697 27.5447 8.51301C26.4024 6.92618 24.8954 5.63715 23.1507 4.75452C21.406 3.87189 19.4748 3.42152 17.5197 3.44134C16.7197 3.44134 16.0763 4.20301 16.0763 5.01467C16.0763 5.81634 16.718 6.46801 17.5197 6.46801C21.1497 6.46801 23.6363 8.12134 25.2597 10.278C26.7243 12.3177 27.5161 14.7636 27.5247 17.2747C27.5247 19.2897 26.953 21.8663 25.248 23.9113C23.5847 25.8947 20.868 27.3997 16.618 27.3997C15.1947 27.4032 13.7881 27.0923 12.4989 26.4893C11.2096 25.8863 10.0694 25.006 9.15968 23.9113C7.38468 21.8447 6.47301 19.5197 6.47301 18.3163V4.95467ZM12.488 4.95467C12.488 4.15301 11.7863 3.33967 10.9947 3.33967C10.203 3.33967 9.47968 4.14301 9.47968 4.95467V17.2747C9.47968 20.0313 12.1463 24.0413 17.0697 24.0413C21.1697 24.0413 24.518 20.963 24.518 16.8247C24.463 14.9868 23.7097 13.2389 22.4114 11.9369C21.1131 10.6349 19.3674 9.87657 17.5297 9.81634C17.1444 9.81942 16.776 9.97522 16.5054 10.2496C16.2348 10.5239 16.0841 10.8944 16.0863 11.2797C16.0863 12.0813 16.728 12.743 17.5297 12.743C19.6347 12.743 21.5097 14.698 21.5097 16.823C21.5097 19.3997 19.5847 21.123 17.0697 21.123C14.0813 21.123 12.4863 18.798 12.4863 17.273L12.488 4.95467Z" fill="black"/>
</svg>
