<svg width="35" height="31" viewBox="0 0 35 31" fill="none" xmlns="http://www.w3.org/2000/svg">
<path d="M17 24.6668H7C5.67392 24.6668 4.40215 24.14 3.46447 23.2024C2.52678 22.2647 2 20.9929 2 19.6668V6.3335C2 5.00741 2.52678 3.73564 3.46447 2.79796C4.40215 1.86028 5.67392 1.3335 7 1.3335H27C28.3261 1.3335 29.5979 1.86028 30.5355 2.79796C31.4732 3.73564 32 5.00741 32 6.3335V13.8335M2 9.66683H32M8.66667 18.0002H8.68333M15.3333 18.0002H18.6667M23.6667 24.6668H33.6667M23.6667 24.6668L28.6667 19.6668M23.6667 24.6668L28.6667 29.6668" stroke="black" stroke-width="2.5" stroke-linecap="round" stroke-linejoin="round"/>
</svg>
