<svg width="36" height="36" viewBox="0 0 36 36" fill="none" xmlns="http://www.w3.org/2000/svg">
<path d="M34.6253 27.8333L31.9587 25.1667C32.5142 22.9167 32.4725 20.6944 31.8337 18.5C31.1948 16.3056 30.042 14.3889 28.3753 12.75L30.7087 10.3333C32.2364 11.8333 33.4448 13.5833 34.3337 15.5833C35.2225 17.5833 35.667 19.75 35.667 22.0833C35.667 23.0833 35.577 24.0694 35.397 25.0417C35.217 26.0139 34.9598 26.9444 34.6253 27.8333ZM15.5837 8.83333L12.5003 2.75L15.5003 1.25L21.167 12.5833V14.4583L15.5837 8.83333ZM33.167 35.875L0.166992 2.83333L2.50033 0.5L35.5003 33.5L33.167 35.875ZM2.33366 33.6667V30.3333H9.79199V29.1667C8.51422 28.5278 7.50755 27.6044 6.77199 26.3967C6.03644 25.1889 5.6681 23.8761 5.66699 22.4583V18.6667H12.3337V13.6667H15.667L19.0003 17H15.667V22H9.00033V22.4583C9.00033 23.4306 9.29922 24.285 9.89699 25.0217C10.4948 25.7583 11.2514 26.2511 12.167 26.5L13.2503 26.625V33.6667H2.33366Z" fill="black"/>
</svg>
