<svg width="40" height="40" viewBox="0 0 40 40" fill="none" xmlns="http://www.w3.org/2000/svg">
<path d="M18.327 16.6665H18.352M18.3337 26.6665H18.3587M11.667 21.6665H25.0003" stroke="black" stroke-width="2.5" stroke-linecap="round" stroke-linejoin="round"/>
<path d="M29.167 8.33301C30.5477 8.33301 31.667 9.4523 31.667 10.833C31.667 12.2137 30.5477 13.333 29.167 13.333C27.7863 13.333 26.667 12.2137 26.667 10.833C26.667 9.4523 27.7863 8.33301 29.167 8.33301Z" stroke="black" stroke-width="2.5" stroke-linecap="round" stroke-linejoin="round"/>
<path d="M4.6238 18.5731C2.95213 20.4398 2.91713 23.2565 4.45046 25.2398C7.42881 29.1061 10.8942 32.5715 14.7605 35.5498C16.7438 37.0831 19.5605 37.0481 21.4271 35.3765C26.4731 30.8629 31.2146 26.0201 35.6205 20.8798C36.0653 20.3686 36.3392 19.7311 36.4038 19.0565C36.6771 16.0631 37.2421 7.4398 34.9005 5.0998C32.5588 2.7598 23.9371 3.32314 20.9438 3.59814C20.2692 3.66277 19.6317 3.93665 19.1205 4.38147C13.9803 8.78682 9.13744 13.5278 4.6238 18.5731Z" stroke="black" stroke-width="2.5" stroke-linecap="round" stroke-linejoin="round"/>
</svg>
