<svg width="44" height="44" viewBox="0 0 44 44" fill="none" xmlns="http://www.w3.org/2000/svg">
<path d="M2 22C2 16.6957 4.10714 11.6086 7.85786 7.85786C11.6086 4.10714 16.6957 2 22 2C27.3043 2 32.3914 4.10714 36.1421 7.85786C39.8929 11.6086 42 16.6957 42 22V34.725C42 36.845 42 37.9 41.685 38.7475C41.4345 39.4191 41.0426 40.0289 40.5358 40.5358C40.0289 41.0426 39.4191 41.4345 38.7475 41.685C37.9 42 36.8425 42 34.725 42H22C16.6957 42 11.6086 39.8929 7.85786 36.1421C4.10714 32.3914 2 27.3043 2 22Z" stroke="#8AE700" stroke-width="4"/>
<path d="M14.5 19.5H29.5M22 29.5H29.5" stroke="#8AE700" stroke-width="4" stroke-linecap="round" stroke-linejoin="round"/>
</svg>
