<svg width="60" height="60" viewBox="0 0 60 60" fill="none" xmlns="http://www.w3.org/2000/svg">
<path d="M45 37.5H15L5 47.5V7.5C5 6.83696 5.26339 6.20107 5.73223 5.73223C6.20107 5.26339 6.83696 5 7.5 5H45C45.663 5 46.2989 5.26339 46.7678 5.73223C47.2366 6.20107 47.5 6.83696 47.5 7.5V35C47.5 35.663 47.2366 36.2989 46.7678 36.7678C46.2989 37.2366 45.663 37.5 45 37.5ZM57.5 22.5V57.5L47.5 47.5H20C19.337 47.5 18.7011 47.2366 18.2322 46.7678C17.7634 46.2989 17.5 45.663 17.5 45V42.5H52.5V20H55C55.663 20 56.2989 20.2634 56.7678 20.7322C57.2366 21.2011 57.5 21.837 57.5 22.5ZM20.475 10C18.3 10 16.55 10.5 15.2 11.475C13.9 12.5 13.25 13.925 13.275 15.9L13.3 15.975H18.125C18.15 15.225 18.375 14.65 18.825 14.25C19.2879 13.8661 19.8737 13.662 20.475 13.675C21.25 13.675 21.9 13.925 22.35 14.375C22.8 14.85 23 15.5 23 16.25C23 17.05 22.825 17.725 22.425 18.3C22.075 18.875 21.55 19.375 20.9 19.775C19.625 20.625 18.75 21.375 18.275 22.05C17.775 22.7 17.5 23.75 17.5 25H22.5C22.5 24.225 22.6 23.6 22.825 23.15C23.05 22.7 23.475 22.25 24.1 21.85C25.225 21.25 26.15 20.525 26.875 19.525C27.6 18.525 27.975 17.5 27.975 16.25C27.975 14.35 27.3 12.825 25.95 11.7C24.625 10.575 22.8 10 20.475 10ZM17.5 27.5V32.5H22.5V27.5H17.5ZM32.5 32.5H37.5V27.5H32.5V32.5ZM32.5 10V25H37.5V10H32.5Z" fill="#8AE700"/>
</svg>
