<svg width="98" height="75" viewBox="0 0 98 75" fill="none" xmlns="http://www.w3.org/2000/svg">
<path d="M22.5469 18.3077C26.3082 18.8446 30.7542 19.1175 35.6391 19.0823C40.5327 19.0823 45.8609 18.7874 51.5182 18.4221C54.3491 18.2285 57.2589 18.0304 60.2346 17.8236C63.2147 17.6168 66.2738 17.4671 69.425 17.5595C71.0006 17.6388 72.6114 17.7048 74.266 18.3253C74.6742 18.4925 75.0955 18.717 75.473 19.0602C75.8548 19.3991 76.1576 19.9272 76.2147 20.4641C76.3025 21.0494 76.1357 21.5379 75.9338 21.9604C75.7275 22.3741 75.4773 22.7218 75.214 23.0563C73.0459 25.6 70.3686 27.3999 67.766 29.3539C62.473 33.1299 56.9649 36.7254 51.5358 40.453C47.7701 43.0539 32.1192 53.5588 30.5743 54.571C26.2995 57.3832 28.3622 57.8189 31.2721 57.0443C38.7377 55.0507 64.9746 42.6842 87.2484 43.8857C88.8987 43.9737 90.4611 44.2025 91.8963 44.5018C89.1137 43.2739 85.7869 42.1913 85.8001 42.0593C85.8352 41.7732 85.8703 41.4256 85.8835 41.3331C86.0107 40.0701 86.0766 38.7938 86.0766 37.4956C86.0722 16.7894 69.3285 0 48.6742 0C35.4855 0 23.8987 6.84338 17.2363 17.1767C18.7681 17.6256 20.5587 18.0128 22.5469 18.3033V18.3077Z" fill="url(#paint0_radial_85_11607)"/>
<path d="M30.4635 63.3064C27.4527 63.9093 24.5121 63.6717 23.0637 61.9201C19.4955 57.6029 30.8892 51.6485 33.3777 50.1478C38.9429 46.7943 45.298 42.9611 50.9553 39.5548C56.5512 36.1001 62.1076 32.5574 67.2821 28.6846C68.5769 27.7252 69.8409 26.7306 71.0391 25.6832C72.2328 24.6402 73.4091 23.5576 74.3176 22.3606C74.7521 21.7664 75.1295 21.1019 75.0023 20.6486C74.9233 20.1733 74.4405 19.8344 73.7821 19.6144C72.4655 19.2007 70.9074 19.1919 69.4195 19.2227C63.376 19.522 57.5124 20.7674 51.9692 21.828C46.3865 22.9811 41.1066 24.0725 36.2393 25.0803C31.3105 26.0353 26.7197 26.8847 22.4668 27.3468C18.2052 27.8309 14.2815 27.9629 10.6036 27.4524C8.19845 27.1047 6.06982 26.3258 4.15625 25.1903C6.57894 28.0421 12.1529 29.3404 12.0695 29.7452C11.5428 32.2449 11.2707 34.8371 11.2707 37.4952C11.2707 58.2102 28.0144 74.9996 48.6731 74.9996C61.3834 74.9996 72.6103 68.6447 79.3692 58.9275C60.7953 56.3838 37.5691 61.8717 30.4678 63.2976L30.4635 63.3064Z" fill="url(#paint1_radial_85_11607)"/>
<path d="M92.5323 55.3059C90.8426 54.2981 85.7163 52.0888 77.1316 52.0272C67.1556 51.9568 57.2366 53.9592 47.48 55.8076C44.7238 56.3313 34.344 58.4437 31.8335 58.6725C29.6478 58.8706 24.5347 58.2721 28.002 54.9934C27.528 55.3411 27.0628 55.7019 26.6282 56.0716C23.3497 59.4383 28.0195 59.9796 29.797 60.1776C36.4682 60.9302 71.7069 49.1842 90.2281 58.4833C90.215 58.5009 90.2062 58.5141 90.193 58.5317C90.193 58.5317 91.8433 56.3489 92.5323 55.3015V55.3059Z" fill="url(#paint2_linear_85_11607)"/>
<path d="M29.796 60.1821C28.0185 59.9797 23.3487 59.4428 26.6272 56.0761C25.0779 57.3656 23.0502 59.742 24.0026 61.1371C24.5732 61.9733 25.8811 62.3386 27.6674 62.3166C37.0026 62.1933 58.8858 54.5974 80.1106 57.9773C81.6511 58.2237 86.0445 59.1127 88.4364 60.8599C88.8929 60.2833 89.5117 59.4604 90.192 58.5362C90.2052 58.5186 90.2139 58.5054 90.2271 58.4878C71.7058 49.1887 36.4672 60.9347 29.796 60.1821Z" fill="url(#paint3_linear_85_11607)"/>
<g style="mix-blend-mode:lighten">
<path d="M29.7963 60.3755C27.9486 60.3755 26.6626 59.9574 25.9824 59.1256C25.6225 58.6943 25.4996 58.2454 25.5961 57.7173L25.978 57.7878C25.9034 58.2014 25.9955 58.5271 26.2808 58.8792C26.8865 59.6141 28.0715 59.9882 29.8007 59.9882C30.4722 59.9882 32.6579 59.5613 35.6819 58.9716C43.6917 57.4093 58.5921 54.5047 70.6002 54.6499C70.8767 54.6543 71.1488 54.6499 71.4253 54.6455C71.6359 54.6455 71.8422 54.6367 72.0529 54.6367C76.2663 54.6367 79.9135 54.958 83.2095 55.6181C84.6623 55.913 87.4361 56.6039 89.7183 57.9374L89.5208 58.2719C87.2868 56.9692 84.5613 56.2871 83.1349 56.001C79.8652 55.3453 76.2399 55.024 72.0529 55.024C71.8466 55.024 71.6403 55.024 71.434 55.0328C71.1532 55.0328 70.8767 55.0416 70.6002 55.0328C58.6316 54.8876 43.7531 57.7878 35.7565 59.3457C32.5965 59.9618 30.5117 60.3711 29.8007 60.3711L29.7963 60.3755Z" fill="url(#paint4_radial_85_11607)"/>
</g>
<path d="M53.5975 19.5051L51.684 19.7164L35.7214 21.6528C31.157 22.1501 26.3204 22.6474 21.9227 22.7574C19.3947 22.8322 17.1958 22.7926 15.1945 22.6254C13.4608 22.4801 11.8852 22.2469 10.3886 21.908C8.60668 21.4987 6.99155 20.9046 5.59588 20.1389C4.7927 19.7076 4.02903 19.2015 3.34436 18.6514L0 20.1741C0.188724 20.4557 0.390614 20.7066 0.640783 21.019C1.03579 21.5031 1.47029 21.9652 1.9399 22.3965C2.98447 23.3647 4.36698 24.2493 5.84605 24.8918C7.30317 25.5388 8.95779 26.0008 10.7704 26.2605C12.2934 26.4717 13.8778 26.573 15.6202 26.573C17.6259 26.573 19.8248 26.4321 22.3352 26.1461C26.7066 25.6708 31.4861 24.773 35.9936 23.8972L51.741 20.6406L53.6283 20.2753C55.8227 19.8528 58.0523 19.4215 60.3214 19.043C60.3214 19.043 56.3099 19.3203 53.7248 19.4963C53.6809 19.4963 53.637 19.5051 53.5931 19.5095L53.5975 19.5051Z" fill="url(#paint5_linear_85_11607)"/>
<path d="M53.7856 19.5004L35.7208 21.6437C31.1564 22.141 26.3198 22.6383 21.9221 22.7483C19.394 22.8231 17.1952 22.7835 15.1938 22.6163C13.4602 22.471 11.8846 22.2378 10.388 21.8989C8.60607 21.4896 6.99095 20.8955 5.59527 20.1298C4.79209 19.6985 4.02842 19.1924 3.34375 18.6423L11.02 15.1436C11.02 15.1436 11.0244 15.1524 11.0288 15.1568C11.4808 15.7465 12.2577 16.3538 13.2627 16.9039C15.2509 18.0173 18.4021 18.9239 22.3653 19.5092C26.0477 20.0329 30.2391 20.3014 34.8343 20.3014H35.6418C40.3775 20.3014 45.4335 20.0329 51.5912 19.6325L53.7856 19.496V19.5004Z" fill="url(#paint6_linear_85_11607)"/>
<g style="mix-blend-mode:lighten">
<path d="M19.6182 22.9816C18.0207 22.9816 16.5548 22.9244 15.181 22.81C13.4386 22.6648 11.8586 22.4315 10.3488 22.0927C8.54498 21.6746 6.91669 21.0717 5.50346 20.2971C4.85829 19.9494 4.22189 19.5489 3.625 19.1045L3.85761 18.792C4.44134 19.2233 5.05579 19.615 5.69218 19.9538C7.07031 20.7108 8.66787 21.3005 10.4366 21.7098C11.9245 22.0398 13.4869 22.2775 15.2161 22.4183C17.2131 22.5856 19.4076 22.6296 21.9224 22.5504C26.3113 22.4403 31.1392 21.943 35.708 21.4457L49.4805 19.7734L49.5288 20.1607L35.7563 21.8286C31.1787 22.3303 26.3421 22.8232 21.94 22.9376C21.1368 22.964 20.3687 22.9728 19.6314 22.9728L19.6182 22.9816Z" fill="url(#paint7_radial_85_11607)"/>
</g>
<path d="M95.9423 46.9747C94.4721 46.385 91.3735 45.3508 87.1645 45.1087C86.2911 45.0515 85.3782 44.9987 84.4478 45.0207C70.8728 45.3904 56.6264 50.1786 53.9579 50.9971C51.4694 51.7585 37.359 56.4542 34.0059 57.462C34.1858 57.4268 34.3657 57.396 34.5457 57.3608C35.305 57.1452 39.3911 55.9569 43.6395 54.7423C47.3965 53.6641 51.1314 52.5991 52.3472 52.2822C55.0376 51.5472 57.6051 50.9003 60.0015 50.3458C64.2807 49.3908 69.284 48.3434 73.9363 47.8461C77.2236 47.4588 81.4106 47.3092 85.7425 47.604C89.6135 47.8681 92.4839 48.9639 94.0507 49.6197C94.2087 49.6813 94.3404 49.7429 94.4457 49.7869C95.0602 50.0597 95.5825 50.3238 96.017 50.5614C96.8816 49.3864 97.5224 48.5326 98.0008 47.9341C97.4916 47.6613 96.7982 47.3224 95.938 46.9791L95.9423 46.9747Z" fill="url(#paint8_linear_85_11607)"/>
<path d="M94.0553 49.6161C92.4885 48.9559 89.6093 47.9569 85.7471 47.6005C82.5739 47.3056 77.2282 47.4596 73.9409 47.8425C65.2684 48.8591 46.9446 53.7925 43.6485 54.7387C39.6107 55.8961 35.5466 57.0756 34.5547 57.3572C34.7302 57.3088 55.819 52.3666 68.4021 50.7999C77.1185 49.7173 84.2768 49.8933 89.2977 51.1432C91.0753 51.5877 92.5894 52.1598 93.8008 52.8639C93.8754 52.9079 95.5695 51.1696 96.0216 50.5535C95.5871 50.3158 94.1914 49.6689 94.0553 49.6117V49.6161Z" fill="url(#paint9_linear_85_11607)"/>
<g style="mix-blend-mode:lighten" opacity="0.6">
<mask id="mask0_85_11607" style="mask-type:luminance" maskUnits="userSpaceOnUse" x="15" y="4" width="67" height="67">
<path d="M81.427 37.4996C81.427 55.64 66.7637 70.3434 48.6725 70.3434C30.5814 70.3434 15.918 55.64 15.918 37.4996C15.918 19.3591 30.5814 4.66016 48.6725 4.66016C66.7637 4.66016 81.427 19.3635 81.427 37.504V37.4996Z" fill="white"/>
</mask>
<g mask="url(#mask0_85_11607)">
<path d="M29.4657 56.4939C29.7685 56.221 30.2601 55.8338 31.0545 55.3101C32.753 54.1922 48.3205 43.7445 52.0335 41.1788C54.0041 39.8277 56.0187 38.4679 57.9673 37.152C61.3775 34.8547 64.8974 32.4783 68.2769 30.071C68.707 29.7453 69.124 29.4372 69.5409 29.1336C71.731 27.5185 73.9957 25.8461 75.8829 23.6281C76.1463 23.298 76.4579 22.8799 76.7212 22.3562C76.945 21.8897 77.2172 21.19 77.0855 20.3318C77.0153 19.6453 76.629 18.9059 76.0585 18.3998C75.6635 18.0389 75.1807 17.7441 74.597 17.5064C72.8238 16.8419 71.1604 16.7583 69.5541 16.6791H69.4663C68.7992 16.6571 68.154 16.6483 67.5132 16.6483C64.8009 16.6483 62.1632 16.8067 60.1706 16.9431L51.4542 17.5416C45.3404 17.9377 40.3195 18.2018 35.7067 18.2018C35.7067 18.2018 35.0967 18.2018 34.8333 18.2018C30.3391 18.2018 26.2486 17.9421 22.6672 17.4316C21.2145 17.216 19.8671 16.9563 18.6426 16.6483C25.4849 6.75067 36.6196 0.879883 48.6716 0.879883C68.8124 0.879883 85.1962 17.3084 85.1962 37.4997C85.1962 38.7275 85.1348 39.9906 85.0075 41.2492L84.9285 41.9578C84.8714 42.4331 84.9636 42.6443 85.5781 42.9436C85.104 42.9304 84.6213 42.926 84.1385 42.926C67.443 42.926 49.2948 49.6241 38.4542 53.6289C35.2195 54.8216 32.6608 55.7677 31.0457 56.199C30.4532 56.3575 29.9089 56.4587 29.4701 56.4939H29.4657Z" fill="url(#paint10_radial_85_11607)"/>
<path d="M48.6723 74.1239C28.5315 74.1239 12.1477 57.6954 12.1477 37.4998C12.1477 34.9472 12.411 32.3991 12.9289 29.9302C13.0825 29.1953 12.5822 28.8828 11.5508 28.4559C12.8411 28.5924 14.1841 28.6584 15.6237 28.6584C17.7084 28.6584 19.9819 28.5175 22.567 28.2227C26.9954 27.7386 31.832 26.832 36.4096 25.9474L52.1527 22.6908C52.7584 22.5763 53.3816 22.4531 54.0136 22.3299C59.0038 21.3617 64.1608 20.3627 69.4714 20.0986C69.7347 20.0942 70.0288 20.0898 70.3229 20.0898C71.2753 20.0898 72.4998 20.1295 73.5312 20.4551C73.9657 20.6003 74.1281 20.7588 74.15 20.8028L74.1588 20.8556C74.15 20.9216 74.0842 21.1989 73.6189 21.8414C72.8202 22.8976 71.7844 23.8746 70.4721 25.0188C69.4143 25.943 68.203 26.9112 66.7678 27.9762C61.5231 31.9018 55.8526 35.4973 50.5025 38.8024L32.9336 49.391C32.7142 49.523 32.4245 49.6902 32.0822 49.8883C28.8958 51.7278 22.2641 55.5566 21.5663 59.4382C21.3688 60.534 21.6541 61.5858 22.3914 62.4792C23.4755 63.7907 25.2969 64.486 27.6581 64.486C28.5886 64.486 29.5936 64.3804 30.6382 64.1691C31.2702 64.0415 32.0295 63.8831 32.9029 63.7026C39.9559 62.2283 54.6325 59.1521 68.7867 59.1521C71.9819 59.1521 75.0014 59.3106 77.7796 59.623C70.8846 68.7285 60.1098 74.1239 48.6679 74.1239H48.6723Z" fill="url(#paint11_radial_85_11607)"/>
</g>
</g>
<g style="mix-blend-mode:lighten">
<path d="M94.4722 49.6773C93.0107 49.0303 89.9385 47.8861 85.7383 47.4856C84.878 47.3976 83.9608 47.336 83.0215 47.3008C80.2609 47.1996 77.2062 47.3448 73.9321 47.7277C69.3018 48.2206 64.3028 49.268 60.0236 50.223C57.6535 50.7687 55.086 51.42 52.3912 52.155C49.8413 52.8195 47.1421 53.5632 44.3639 54.3642C43.0253 54.7515 41.6691 55.1564 40.2997 55.5613C40.2866 55.5657 40.269 55.5701 40.2559 55.5745C40.2646 55.7065 40.269 55.8385 40.269 55.9749C40.3173 55.9617 40.3656 55.9485 40.4095 55.9353C41.7788 55.526 43.135 55.1256 44.4692 54.7383C47.243 53.9329 49.9422 53.1936 52.4878 52.529C55.1782 51.7941 57.7413 51.1472 60.107 50.6015C64.3774 49.6465 69.3632 48.6034 73.9716 48.1105C77.2281 47.7277 80.2697 47.5868 83.004 47.6837C83.9388 47.7189 84.8429 47.7805 85.6988 47.8685C89.8463 48.2646 92.8747 49.3912 94.3142 50.0293C94.6478 50.179 94.955 50.3242 95.2315 50.4606L95.4027 50.1174C95.1174 49.9765 94.8058 49.8269 94.4678 49.6729L94.4722 49.6773Z" fill="url(#paint12_radial_85_11607)"/>
</g>
<defs>
<radialGradient id="paint0_radial_85_11607" cx="0" cy="0" r="1" gradientUnits="userSpaceOnUse" gradientTransform="translate(49.7275 30.4937) scale(31.1877 31.2727)">
<stop stop-color="#12AFE6"/>
<stop offset="0.13" stop-color="#12A9E0"/>
<stop offset="0.3" stop-color="#1398CF"/>
<stop offset="0.5" stop-color="#157CB3"/>
<stop offset="0.72" stop-color="#17568C"/>
<stop offset="0.95" stop-color="#1A255A"/>
<stop offset="1" stop-color="#1B194E"/>
</radialGradient>
<radialGradient id="paint1_radial_85_11607" cx="0" cy="0" r="1" gradientUnits="userSpaceOnUse" gradientTransform="translate(49.7264 30.4934) scale(31.1877 31.2727)">
<stop stop-color="#12AFE6"/>
<stop offset="0.13" stop-color="#12A9E0"/>
<stop offset="0.3" stop-color="#1398CF"/>
<stop offset="0.5" stop-color="#157CB3"/>
<stop offset="0.72" stop-color="#17568C"/>
<stop offset="0.95" stop-color="#1A255A"/>
<stop offset="1" stop-color="#1B194E"/>
</radialGradient>
<linearGradient id="paint2_linear_85_11607" x1="29.797" y1="55.878" x2="60.9584" y2="56.1931" gradientUnits="userSpaceOnUse">
<stop stop-color="#FEC113"/>
<stop offset="0.2" stop-color="#FCB415"/>
<stop offset="0.56" stop-color="#F7941A"/>
<stop offset="1" stop-color="#F06623"/>
</linearGradient>
<linearGradient id="paint3_linear_85_11607" x1="21.1542" y1="64.605" x2="58.7027" y2="58.3056" gradientUnits="userSpaceOnUse">
<stop stop-color="#FEC113"/>
<stop offset="0.2" stop-color="#FCB415"/>
<stop offset="0.56" stop-color="#F7941A"/>
<stop offset="1" stop-color="#F06623"/>
</linearGradient>
<radialGradient id="paint4_radial_85_11607" cx="0" cy="0" r="1" gradientUnits="userSpaceOnUse" gradientTransform="translate(61.5283 55.3497) scale(15.55 15.5923)">
<stop stop-color="#FBB715"/>
<stop offset="0.24" stop-color="#F9AA17"/>
<stop offset="0.68" stop-color="#F58B1E"/>
<stop offset="1" stop-color="#F26F24"/>
</radialGradient>
<linearGradient id="paint5_linear_85_11607" x1="4.22653" y1="22.6034" x2="35.6161" y2="22.6034" gradientUnits="userSpaceOnUse">
<stop stop-color="#FEC113"/>
<stop offset="0.2" stop-color="#FCB415"/>
<stop offset="0.56" stop-color="#F7941A"/>
<stop offset="1" stop-color="#F06623"/>
</linearGradient>
<linearGradient id="paint6_linear_85_11607" x1="36.3704" y1="21.6349" x2="5.44726" y2="14.9364" gradientUnits="userSpaceOnUse">
<stop stop-color="#FEC113"/>
<stop offset="0.2" stop-color="#FCB415"/>
<stop offset="0.56" stop-color="#F7941A"/>
<stop offset="1" stop-color="#F06623"/>
</linearGradient>
<radialGradient id="paint7_radial_85_11607" cx="0" cy="0" r="1" gradientUnits="userSpaceOnUse" gradientTransform="translate(16.7479 22.6076) scale(14.4703 14.5097)">
<stop stop-color="#FBB715"/>
<stop offset="0.24" stop-color="#F9AA17"/>
<stop offset="0.68" stop-color="#F58B1E"/>
<stop offset="1" stop-color="#F26F24"/>
</radialGradient>
<linearGradient id="paint8_linear_85_11607" x1="88.9157" y1="51.7013" x2="69.0865" y2="51.3905" gradientUnits="userSpaceOnUse">
<stop stop-color="#FEC113"/>
<stop offset="0.2" stop-color="#FCB415"/>
<stop offset="0.56" stop-color="#F7941A"/>
<stop offset="1" stop-color="#F06623"/>
</linearGradient>
<linearGradient id="paint9_linear_85_11607" x1="28.9632" y1="53.4052" x2="142.418" y2="49.4265" gradientUnits="userSpaceOnUse">
<stop stop-color="#FEC113"/>
<stop offset="0.2" stop-color="#FCB415"/>
<stop offset="0.56" stop-color="#F7941A"/>
<stop offset="1" stop-color="#F06623"/>
</linearGradient>
<radialGradient id="paint10_radial_85_11607" cx="0" cy="0" r="1" gradientUnits="userSpaceOnUse" gradientTransform="translate(70.5109 26.4182) scale(54.7606 54.9099)">
<stop stop-color="#12AFE6"/>
<stop offset="0.13" stop-color="#12A9E0"/>
<stop offset="0.3" stop-color="#1398CF"/>
<stop offset="0.5" stop-color="#157CB3"/>
<stop offset="0.72" stop-color="#17568C"/>
<stop offset="0.95" stop-color="#1A255A"/>
<stop offset="1" stop-color="#1B194E"/>
</radialGradient>
<radialGradient id="paint11_radial_85_11607" cx="0" cy="0" r="1" gradientUnits="userSpaceOnUse" gradientTransform="translate(74.0183 27.008) scale(55.612 55.7636)">
<stop stop-color="#12AFE6"/>
<stop offset="0.13" stop-color="#12A9E0"/>
<stop offset="0.3" stop-color="#1398CF"/>
<stop offset="0.5" stop-color="#157CB3"/>
<stop offset="0.72" stop-color="#17568C"/>
<stop offset="0.95" stop-color="#1A255A"/>
<stop offset="1" stop-color="#1B194E"/>
</radialGradient>
<radialGradient id="paint12_radial_85_11607" cx="0" cy="0" r="1" gradientUnits="userSpaceOnUse" gradientTransform="translate(76.5084 47.534) scale(16.4804 16.5253)">
<stop stop-color="#FED304"/>
<stop offset="0.19" stop-color="#FCC607"/>
<stop offset="0.52" stop-color="#F8A612"/>
<stop offset="0.97" stop-color="#F27322"/>
<stop offset="1" stop-color="#F26F24"/>
</radialGradient>
</defs>
</svg>
