<svg width="720" height="1024" viewBox="0 0 720 1024" fill="none" xmlns="http://www.w3.org/2000/svg">
<rect width="720" height="1024" fill="#6BB400"/>
<circle cx="360" cy="512" r="303" fill="url(#paint0_radial_85_11548)" fill-opacity="0.2"/>
<circle cx="360" cy="512" r="303" fill="url(#paint1_linear_85_11548)" fill-opacity="0.2"/>
<circle cx="360" cy="511" r="264" fill="url(#paint2_radial_85_11548)" fill-opacity="0.2"/>
<circle cx="360" cy="511" r="264" fill="url(#paint3_linear_85_11548)" fill-opacity="0.2"/>
<g clip-path="url(#clip0_85_11548)">
<path d="M653 478.552H652.01V451.39C652.011 449.326 651.605 447.282 650.816 445.374C650.027 443.467 648.872 441.734 647.415 440.274C645.957 438.815 644.228 437.657 642.324 436.867C640.42 436.077 638.38 435.67 636.319 435.67H578.879C576.818 435.67 574.778 436.077 572.874 436.867C570.97 437.657 569.241 438.815 567.783 440.274C566.326 441.734 565.171 443.467 564.382 445.374C563.593 447.282 563.187 449.326 563.188 451.39V600.401C563.187 602.465 563.593 604.509 564.382 606.416C565.171 608.324 566.326 610.057 567.783 611.517C569.241 612.976 570.97 614.134 572.874 614.924C574.778 615.714 576.818 616.121 578.879 616.121H636.319C638.38 616.121 640.42 615.714 642.324 614.924C644.228 614.134 645.957 612.976 647.415 611.517C648.872 610.057 650.027 608.324 650.816 606.416C651.605 604.509 652.011 602.465 652.01 600.401V497.886H653V478.552Z" fill="#3F3D56"/>
<path d="M648.672 452.314V601.108C648.672 604.222 647.437 607.208 645.239 609.41C643.041 611.612 640.06 612.849 636.952 612.849H579.236C577.697 612.849 576.174 612.545 574.752 611.955C573.331 611.365 572.039 610.5 570.951 609.41C569.863 608.319 569 607.025 568.412 605.6C567.824 604.176 567.521 602.649 567.521 601.108V452.314C567.522 449.202 568.756 446.217 570.953 444.016C573.15 441.815 576.129 440.578 579.236 440.578H586.238C585.895 441.425 585.764 442.343 585.858 443.253C585.951 444.162 586.267 445.034 586.776 445.793C587.285 446.551 587.972 447.173 588.777 447.603C589.582 448.034 590.48 448.259 591.393 448.26H624.3C625.214 448.262 626.113 448.038 626.92 447.608C627.727 447.179 628.415 446.557 628.925 445.798C629.434 445.038 629.749 444.165 629.842 443.254C629.934 442.344 629.801 441.425 629.455 440.578H636.952C640.06 440.578 643.04 441.814 645.238 444.015C647.436 446.216 648.671 449.201 648.672 452.314Z" fill="#D0CDE1"/>
<path d="M637.745 516.757H570.652V534.895H637.745V516.757Z" fill="#A4BCFD"/>
<path d="M640.406 531.693H575.443C575.02 531.692 574.614 531.524 574.314 531.224C574.015 530.924 573.846 530.517 573.846 530.093V514.089C573.846 513.664 574.015 513.258 574.314 512.958C574.614 512.658 575.02 512.489 575.443 512.488H640.406C640.83 512.489 641.236 512.658 641.535 512.958C641.835 513.258 642.003 513.664 642.004 514.089V530.093C642.003 530.517 641.835 530.924 641.535 531.224C641.236 531.524 640.83 531.692 640.406 531.693ZM575.443 513.555C575.302 513.555 575.167 513.612 575.067 513.712C574.967 513.812 574.911 513.947 574.911 514.089V530.093C574.911 530.234 574.967 530.37 575.067 530.47C575.167 530.57 575.302 530.626 575.443 530.626H640.406C640.547 530.626 640.683 530.57 640.783 530.47C640.883 530.37 640.939 530.234 640.939 530.093V514.089C640.939 513.947 640.883 513.812 640.783 513.712C640.683 513.612 640.547 513.555 640.406 513.555H575.443Z" fill="#3F3D56"/>
<path d="M586.625 526.893H578.105V527.96H586.625V526.893Z" fill="#3F3D56"/>
<path d="M598.34 526.893H589.82V527.96H598.34V526.893Z" fill="#3F3D56"/>
<path d="M610.055 526.893H601.535V527.96H610.055V526.893Z" fill="#3F3D56"/>
<path d="M621.77 526.893H613.25V527.96H621.77V526.893Z" fill="#3F3D56"/>
<path d="M633.485 526.893H624.965V527.96H633.485V526.893Z" fill="#3F3D56"/>
<path opacity="0.1" d="M648.672 585.978V601.107C648.672 604.221 647.437 607.208 645.239 609.41C643.041 611.612 640.06 612.849 636.952 612.849H579.236C577.697 612.849 576.174 612.545 574.752 611.955C573.331 611.364 572.039 610.499 570.951 609.409C569.863 608.319 569 607.024 568.412 605.6C567.824 604.176 567.521 602.649 567.521 601.107V531.512L648.672 585.978Z" fill="black"/>
<path d="M372.035 572.236H120.17V696H372.035V572.236Z" fill="#D0CDE1"/>
<path opacity="0.1" d="M308.004 696H121.235C120.953 695.999 120.682 695.886 120.483 695.686C120.283 695.486 120.171 695.216 120.17 694.933V573.303C120.171 573.021 120.283 572.75 120.483 572.55C120.682 572.35 120.953 572.237 121.235 572.236H123.599L308.004 696Z" fill="black"/>
<path d="M627.094 588.773H236.783V589.84H627.094V588.773Z" fill="#3F3D56"/>
<path d="M360.183 329.303H248.633V327H198.052V329.303H86.0416C85.0507 329.303 84.0695 329.499 83.1541 329.879C82.2386 330.259 81.4068 330.816 80.7061 331.517C80.0055 332.219 79.4497 333.053 79.0705 333.97C78.6913 334.887 78.4961 335.87 78.4961 336.863V489.89C78.4961 491.895 79.2911 493.817 80.7061 495.235C82.1212 496.653 84.0404 497.449 86.0416 497.449H360.183C362.184 497.449 364.103 496.653 365.518 495.235C366.933 493.817 367.728 491.895 367.728 489.89V336.863C367.728 335.87 367.533 334.887 367.154 333.97C366.775 333.053 366.219 332.219 365.518 331.517C364.818 330.816 363.986 330.259 363.07 329.879C362.155 329.499 361.174 329.303 360.183 329.303Z" fill="#3F3D56"/>
<path d="M357.609 342.661H88.6133V494.687H357.609V342.661Z" fill="#D0CDE1"/>
<path d="M222.882 338.516C224.406 338.516 225.641 337.279 225.641 335.752C225.641 334.226 224.406 332.988 222.882 332.988C221.358 332.988 220.123 334.226 220.123 335.752C220.123 337.279 221.358 338.516 222.882 338.516Z" fill="#A4BCFD"/>
<path d="M168.626 399.394H162.236C161.813 399.394 161.407 399.225 161.107 398.925C160.808 398.625 160.639 398.218 160.639 397.794V391.392C160.639 390.968 160.808 390.561 161.107 390.261C161.407 389.961 161.813 389.792 162.236 389.792H168.626C169.049 389.792 169.456 389.961 169.755 390.261C170.054 390.561 170.223 390.968 170.223 391.392V397.794C170.223 398.218 170.054 398.625 169.755 398.925C169.456 399.225 169.049 399.394 168.626 399.394ZM162.236 390.859C162.095 390.859 161.96 390.915 161.86 391.015C161.76 391.115 161.704 391.251 161.704 391.392V397.794C161.704 397.935 161.76 398.071 161.86 398.171C161.96 398.271 162.095 398.327 162.236 398.327H168.626C168.767 398.327 168.902 398.271 169.002 398.171C169.102 398.071 169.158 397.935 169.158 397.794V391.392C169.158 391.251 169.102 391.115 169.002 391.015C168.902 390.915 168.767 390.859 168.626 390.859H162.236Z" fill="#3F3D56"/>
<path d="M282.576 398.328H161.17V399.395H282.576V398.328Z" fill="#3F3D56"/>
<path d="M279.382 427.668H251.16V436.203H279.382V427.668Z" fill="#A4BCFD"/>
<path d="M281.511 434.07H255.42C254.996 434.07 254.59 433.901 254.291 433.601C253.991 433.301 253.823 432.894 253.822 432.47V426.068C253.823 425.644 253.991 425.237 254.291 424.937C254.59 424.637 254.996 424.468 255.42 424.468H281.511C281.935 424.468 282.341 424.637 282.641 424.937C282.94 425.237 283.108 425.644 283.109 426.068V432.47C283.108 432.894 282.94 433.301 282.641 433.601C282.341 433.901 281.935 434.07 281.511 434.07ZM255.42 425.535C255.279 425.535 255.143 425.591 255.043 425.691C254.944 425.791 254.887 425.927 254.887 426.068V432.47C254.887 432.611 254.944 432.747 255.043 432.847C255.143 432.947 255.279 433.003 255.42 433.003H281.511C281.653 433.003 281.788 432.947 281.888 432.847C281.988 432.747 282.044 432.611 282.044 432.47V426.068C282.044 425.927 281.988 425.791 281.888 425.691C281.788 425.591 281.653 425.535 281.511 425.535H255.42Z" fill="#3F3D56"/>
<path d="M495.04 437.271H441.791V474.613H495.04V437.271Z" fill="#A4BCFD"/>
<path d="M500.364 471.678H449.245C448.68 471.678 448.139 471.453 447.74 471.053C447.34 470.653 447.116 470.11 447.115 469.545V434.336C447.116 433.77 447.34 433.228 447.74 432.828C448.139 432.428 448.68 432.203 449.245 432.202H500.364C500.928 432.203 501.47 432.428 501.869 432.828C502.268 433.228 502.493 433.77 502.494 434.336V469.545C502.493 470.11 502.268 470.653 501.869 471.053C501.47 471.453 500.928 471.678 500.364 471.678ZM449.245 434.336V469.545H500.365L500.364 434.336H449.245Z" fill="#3F3D56"/>
<path d="M494.505 433.003H492.376C492.376 428.334 490.524 423.856 487.229 420.555C483.933 417.253 479.464 415.399 474.804 415.399C470.143 415.399 465.674 417.253 462.378 420.555C459.083 423.856 457.232 428.334 457.232 433.003H455.102C455.102 427.768 457.177 422.747 460.872 419.046C464.567 415.344 469.578 413.265 474.804 413.265C480.029 413.265 485.04 415.344 488.735 419.046C492.43 422.747 494.505 427.768 494.505 433.003Z" fill="#3F3D56"/>
<path d="M480.128 447.673C480.13 446.744 479.888 445.831 479.429 445.024C478.97 444.217 478.308 443.544 477.509 443.072C476.711 442.6 475.803 442.345 474.876 442.333C473.949 442.32 473.034 442.55 472.223 443C471.412 443.45 470.732 444.105 470.251 444.899C469.77 445.693 469.504 446.6 469.48 447.528C469.456 448.457 469.675 449.376 470.114 450.194C470.553 451.012 471.198 451.701 471.985 452.193V457.919C471.985 458.289 472.057 458.657 472.199 458.999C472.341 459.342 472.548 459.653 472.81 459.916C473.072 460.178 473.383 460.386 473.725 460.528C474.067 460.67 474.433 460.743 474.804 460.743C475.551 460.743 476.268 460.445 476.797 459.916C477.326 459.386 477.623 458.668 477.623 457.919V452.193C478.389 451.715 479.021 451.049 479.46 450.258C479.898 449.467 480.128 448.577 480.128 447.673Z" fill="#3F3D56"/>
<path d="M226.932 627.184H218.412V628.251H226.932V627.184Z" fill="#3F3D56"/>
<path d="M238.647 627.184H230.127V628.251H238.647V627.184Z" fill="#3F3D56"/>
<path d="M250.362 627.184H241.842V628.251H250.362V627.184Z" fill="#3F3D56"/>
<path d="M262.076 627.184H253.557V628.251H262.076V627.184Z" fill="#3F3D56"/>
<path d="M273.791 627.184H265.271V628.251H273.791V627.184Z" fill="#3F3D56"/>
<path d="M383.217 686.931H133.482C132.917 686.931 132.375 686.706 131.976 686.306C131.577 685.906 131.352 685.363 131.352 684.798V563.168C131.352 562.602 131.577 562.06 131.976 561.66C132.375 561.26 132.917 561.035 133.482 561.034H383.217C383.781 561.035 384.323 561.26 384.722 561.66C385.121 562.06 385.346 562.602 385.347 563.168V684.798C385.346 685.363 385.121 685.906 384.722 686.306C384.323 686.706 383.781 686.931 383.217 686.931ZM133.482 563.168V684.798H383.218L383.217 563.168H133.482Z" fill="#3F3D56"/>
<path d="M144.664 581.306C146.428 581.306 147.859 579.873 147.859 578.105C147.859 576.337 146.428 574.904 144.664 574.904C142.899 574.904 141.469 576.337 141.469 578.105C141.469 579.873 142.899 581.306 144.664 581.306Z" fill="#3F3D56"/>
<path d="M155.845 581.306C157.61 581.306 159.04 579.873 159.04 578.105C159.04 576.337 157.61 574.904 155.845 574.904C154.081 574.904 152.65 576.337 152.65 578.105C152.65 579.873 154.081 581.306 155.845 581.306Z" fill="#3F3D56"/>
<path d="M167.029 581.306C168.793 581.306 170.224 579.873 170.224 578.105C170.224 576.337 168.793 574.904 167.029 574.904C165.264 574.904 163.834 576.337 163.834 578.105C163.834 579.873 165.264 581.306 167.029 581.306Z" fill="#3F3D56"/>
<path d="M282.045 634.652H210.16C209.736 634.652 209.33 634.483 209.031 634.183C208.731 633.883 208.563 633.476 208.562 633.052V614.914C208.563 614.49 208.731 614.083 209.031 613.783C209.33 613.483 209.736 613.314 210.16 613.313H282.045C282.469 613.314 282.875 613.483 283.174 613.783C283.474 614.083 283.642 614.49 283.643 614.914V633.052C283.642 633.476 283.474 633.883 283.174 634.183C282.875 634.483 282.469 634.652 282.045 634.652ZM210.16 614.38C210.019 614.381 209.883 614.437 209.784 614.537C209.684 614.637 209.628 614.772 209.627 614.914V633.052C209.628 633.193 209.684 633.329 209.784 633.429C209.883 633.529 210.019 633.585 210.16 633.585H282.045C282.187 633.585 282.322 633.529 282.422 633.429C282.522 633.329 282.578 633.193 282.578 633.052V614.914C282.578 614.772 282.522 614.637 282.422 614.537C282.322 614.437 282.187 614.381 282.045 614.38H210.16Z" fill="#3F3D56"/>
<path d="M300.149 635.185C305.443 635.185 309.734 630.886 309.734 625.583C309.734 620.28 305.443 615.98 300.149 615.98C294.856 615.98 290.564 620.28 290.564 625.583C290.564 630.886 294.856 635.185 300.149 635.185Z" fill="#A4BCFD"/>
<path d="M303.344 634.118C301.343 634.118 299.387 633.524 297.723 632.41C296.059 631.296 294.762 629.713 293.997 627.861C293.231 626.009 293.031 623.971 293.421 622.005C293.811 620.039 294.775 618.233 296.19 616.815C297.605 615.398 299.407 614.433 301.37 614.041C303.333 613.65 305.367 613.851 307.215 614.618C309.064 615.385 310.644 616.684 311.756 618.351C312.868 620.018 313.461 621.978 313.461 623.982C313.458 626.67 312.391 629.246 310.494 631.146C308.598 633.046 306.026 634.115 303.344 634.118ZM303.344 614.914C301.553 614.914 299.803 615.445 298.315 616.442C296.826 617.438 295.666 618.855 294.981 620.512C294.295 622.169 294.116 623.993 294.465 625.752C294.815 627.511 295.677 629.127 296.943 630.395C298.209 631.663 299.822 632.527 301.578 632.877C303.334 633.227 305.154 633.047 306.808 632.361C308.462 631.675 309.876 630.512 310.87 629.021C311.865 627.529 312.396 625.776 312.396 623.982C312.393 621.578 311.439 619.273 309.742 617.573C308.045 615.873 305.744 614.916 303.344 614.914Z" fill="#3F3D56"/>
<path d="M303.487 627.768L298.332 622.603L299.838 621.095L303.203 624.465L312.591 611.099L314.333 612.327L303.487 627.768Z" fill="#3F3D56"/>
<path opacity="0.1" d="M297.97 494.688H88.6133V354.179L297.97 494.688Z" fill="black"/>
<path d="M375.281 491.921H349.028V490.026C349.028 489.977 349.019 489.928 349 489.882C348.981 489.837 348.953 489.795 348.918 489.76C348.884 489.726 348.842 489.698 348.797 489.679C348.751 489.66 348.703 489.65 348.653 489.65H339.652C339.603 489.65 339.554 489.66 339.509 489.679C339.463 489.698 339.422 489.726 339.387 489.76C339.352 489.795 339.325 489.837 339.306 489.882C339.287 489.928 339.277 489.977 339.277 490.026V491.921H333.652V490.026C333.652 489.977 333.642 489.928 333.623 489.882C333.604 489.837 333.577 489.795 333.542 489.76C333.507 489.726 333.466 489.698 333.42 489.679C333.375 489.66 333.326 489.65 333.277 489.65H324.276C324.227 489.65 324.178 489.66 324.132 489.679C324.087 489.698 324.045 489.726 324.011 489.76C323.976 489.795 323.948 489.837 323.929 489.882C323.91 489.928 323.901 489.977 323.901 490.026V491.921H318.275V490.026C318.275 489.977 318.266 489.928 318.247 489.882C318.228 489.837 318.2 489.795 318.165 489.76C318.131 489.726 318.089 489.698 318.044 489.679C317.998 489.66 317.949 489.65 317.9 489.65H308.899C308.85 489.65 308.801 489.66 308.756 489.679C308.71 489.698 308.669 489.726 308.634 489.76C308.599 489.795 308.572 489.837 308.553 489.882C308.534 489.928 308.524 489.977 308.524 490.026V491.921H302.899V490.026C302.899 489.977 302.889 489.928 302.87 489.882C302.851 489.837 302.824 489.795 302.789 489.76C302.754 489.726 302.713 489.698 302.667 489.679C302.622 489.66 302.573 489.65 302.524 489.65H293.523C293.473 489.65 293.425 489.66 293.379 489.679C293.334 489.698 293.292 489.726 293.258 489.76C293.223 489.795 293.195 489.837 293.176 489.882C293.157 489.928 293.148 489.977 293.148 490.026V491.921H287.522V490.026C287.522 489.977 287.512 489.928 287.494 489.882C287.475 489.837 287.447 489.795 287.412 489.76C287.377 489.726 287.336 489.698 287.291 489.679C287.245 489.66 287.196 489.65 287.147 489.65H278.146C278.097 489.65 278.048 489.66 278.003 489.679C277.957 489.698 277.916 489.726 277.881 489.76C277.846 489.795 277.819 489.837 277.8 489.882C277.781 489.928 277.771 489.977 277.771 490.026V491.921H272.146V490.026C272.146 489.977 272.136 489.928 272.117 489.882C272.098 489.837 272.071 489.795 272.036 489.76C272.001 489.726 271.96 489.698 271.914 489.679C271.869 489.66 271.82 489.65 271.771 489.65H262.77C262.72 489.65 262.672 489.66 262.626 489.679C262.581 489.698 262.539 489.726 262.504 489.76C262.47 489.795 262.442 489.837 262.423 489.882C262.404 489.928 262.395 489.977 262.395 490.026V491.921H256.769V490.026C256.769 489.977 256.759 489.928 256.741 489.882C256.722 489.837 256.694 489.795 256.659 489.76C256.624 489.726 256.583 489.698 256.538 489.679C256.492 489.66 256.443 489.65 256.394 489.65H185.887C185.838 489.65 185.789 489.66 185.743 489.679C185.698 489.698 185.657 489.726 185.622 489.76C185.587 489.795 185.559 489.837 185.54 489.882C185.522 489.928 185.512 489.977 185.512 490.026V491.921H179.886V490.026C179.886 489.977 179.877 489.928 179.858 489.882C179.839 489.837 179.811 489.795 179.776 489.76C179.742 489.726 179.7 489.698 179.655 489.679C179.609 489.66 179.561 489.65 179.511 489.65H170.51C170.461 489.65 170.412 489.66 170.367 489.679C170.321 489.698 170.28 489.726 170.245 489.76C170.21 489.795 170.183 489.837 170.164 489.882C170.145 489.928 170.135 489.977 170.135 490.026V491.921H164.51V490.026C164.51 489.977 164.5 489.928 164.481 489.882C164.462 489.837 164.435 489.795 164.4 489.76C164.365 489.726 164.324 489.698 164.278 489.679C164.233 489.66 164.184 489.65 164.135 489.65H155.134C155.085 489.65 155.036 489.66 154.99 489.679C154.945 489.698 154.903 489.726 154.869 489.76C154.834 489.795 154.806 489.837 154.787 489.882C154.769 489.928 154.759 489.977 154.759 490.026V491.921H149.133V490.026C149.133 489.977 149.124 489.928 149.105 489.882C149.086 489.837 149.058 489.795 149.023 489.76C148.989 489.726 148.947 489.698 148.902 489.679C148.856 489.66 148.807 489.65 148.758 489.65H139.757C139.708 489.65 139.659 489.66 139.614 489.679C139.568 489.698 139.527 489.726 139.492 489.76C139.457 489.795 139.43 489.837 139.411 489.882C139.392 489.928 139.382 489.977 139.382 490.026V491.921H133.757V490.026C133.757 489.977 133.747 489.928 133.728 489.882C133.709 489.837 133.682 489.795 133.647 489.76C133.612 489.726 133.571 489.698 133.525 489.679C133.48 489.66 133.431 489.65 133.382 489.65H124.381C124.331 489.65 124.283 489.66 124.237 489.679C124.192 489.698 124.15 489.726 124.116 489.76C124.081 489.795 124.053 489.837 124.034 489.882C124.015 489.928 124.006 489.977 124.006 490.026V491.921H118.38V490.026C118.38 489.977 118.37 489.928 118.352 489.882C118.333 489.837 118.305 489.795 118.27 489.76C118.236 489.726 118.194 489.698 118.149 489.679C118.103 489.66 118.054 489.65 118.005 489.65H109.004C108.955 489.65 108.906 489.66 108.861 489.679C108.815 489.698 108.774 489.726 108.739 489.76C108.704 489.795 108.677 489.837 108.658 489.882C108.639 489.928 108.629 489.977 108.629 490.026V491.921H103.004V490.026C103.004 489.977 102.994 489.928 102.975 489.882C102.956 489.837 102.929 489.795 102.894 489.76C102.859 489.726 102.818 489.698 102.772 489.679C102.727 489.66 102.678 489.65 102.629 489.65H93.6277C93.5784 489.65 93.5297 489.66 93.4841 489.679C93.4386 489.698 93.3973 489.726 93.3625 489.76C93.3277 489.795 93.3 489.837 93.2812 489.882C93.2623 489.928 93.2526 489.977 93.2526 490.026V491.921H76.0009C74.8189 491.921 73.6484 492.154 72.5564 492.607C71.4644 493.061 70.4721 493.725 69.6363 494.562C68.8005 495.4 68.1375 496.394 67.6852 497.488C67.2328 498.582 67 499.754 67 500.939V505.016C67 507.408 67.9483 509.701 69.6363 511.392C71.3243 513.083 73.6137 514.033 76.0009 514.033H375.281C376.463 514.033 377.633 513.8 378.725 513.347C379.817 512.894 380.81 512.23 381.646 511.392C382.481 510.555 383.144 509.561 383.597 508.467C384.049 507.373 384.282 506.2 384.282 505.016V500.939C384.282 499.754 384.049 498.582 383.597 497.488C383.144 496.394 382.481 495.4 381.646 494.562C380.81 493.725 379.817 493.061 378.725 492.607C377.633 492.154 376.463 491.921 375.281 491.921Z" fill="#3F3D56"/>
<path d="M293.226 443.139H152.65C152.227 443.138 151.821 442.969 151.521 442.669C151.222 442.369 151.053 441.962 151.053 441.538V382.857C151.053 382.433 151.222 382.026 151.521 381.726C151.821 381.426 152.227 381.257 152.65 381.257H293.226C293.65 381.257 294.056 381.426 294.355 381.726C294.655 382.026 294.823 382.433 294.824 382.857V441.538C294.823 441.962 294.655 442.369 294.355 442.669C294.056 442.969 293.65 443.138 293.226 443.139ZM152.65 382.324C152.509 382.324 152.374 382.38 152.274 382.48C152.174 382.58 152.118 382.716 152.118 382.857V441.538C152.118 441.68 152.174 441.815 152.274 441.915C152.374 442.015 152.509 442.071 152.65 442.072H293.226C293.367 442.071 293.503 442.015 293.603 441.915C293.702 441.815 293.759 441.68 293.759 441.538V382.857C293.759 382.716 293.702 382.58 293.603 382.48C293.503 382.38 293.367 382.324 293.226 382.324H152.65Z" fill="#3F3D56"/>
<path d="M168.626 415.398H162.236C161.813 415.398 161.407 415.229 161.107 414.929C160.808 414.629 160.639 414.222 160.639 413.798V407.396C160.639 406.972 160.808 406.565 161.107 406.265C161.407 405.965 161.813 405.796 162.236 405.796H168.626C169.049 405.796 169.456 405.965 169.755 406.265C170.054 406.565 170.223 406.972 170.223 407.396V413.798C170.223 414.222 170.054 414.629 169.755 414.929C169.456 415.229 169.049 415.398 168.626 415.398ZM162.236 406.863C162.095 406.863 161.96 406.919 161.86 407.019C161.76 407.119 161.704 407.255 161.704 407.396V413.798C161.704 413.939 161.76 414.075 161.86 414.175C161.96 414.275 162.095 414.331 162.236 414.331H168.626C168.767 414.331 168.902 414.275 169.002 414.175C169.102 414.075 169.158 413.939 169.158 413.798V407.396C169.158 407.255 169.102 407.119 169.002 407.019C168.902 406.919 168.767 406.863 168.626 406.863H162.236Z" fill="#3F3D56"/>
<path d="M282.576 414.331H161.17V415.398H282.576V414.331Z" fill="#3F3D56"/>
<path d="M598.341 470.879H208.029V471.946H598.341V470.879Z" fill="#3F3D56"/>
<path d="M208.029 478.347C212.146 478.347 215.484 475.003 215.484 470.879C215.484 466.754 212.146 463.41 208.029 463.41C203.912 463.41 200.574 466.754 200.574 470.879C200.574 475.003 203.912 478.347 208.029 478.347Z" fill="#3F3D56"/>
<path d="M598.342 477.813C601.577 477.813 604.199 475.186 604.199 471.945C604.199 468.704 601.577 466.077 598.342 466.077C595.107 466.077 592.484 468.704 592.484 471.945C592.484 475.186 595.107 477.813 598.342 477.813Z" fill="#3F3D56"/>
<path d="M627.096 595.709C630.331 595.709 632.953 593.082 632.953 589.841C632.953 586.6 630.331 583.973 627.096 583.973C623.861 583.973 621.238 586.6 621.238 589.841C621.238 593.082 623.861 595.709 627.096 595.709Z" fill="#3F3D56"/>
<path d="M238.381 595.709C241.616 595.709 244.238 593.082 244.238 589.841C244.238 586.6 241.616 583.973 238.381 583.973C235.146 583.973 232.523 586.6 232.523 589.841C232.523 593.082 235.146 595.709 238.381 595.709Z" fill="#3F3D56"/>
</g>
<path d="M247.207 887.812H250.419C250.354 888.864 250.064 889.799 249.549 890.615C249.04 891.432 248.328 892.069 247.411 892.527C246.502 892.986 245.406 893.215 244.124 893.215C243.121 893.215 242.223 893.043 241.428 892.699C240.633 892.348 239.952 891.847 239.387 891.195C238.828 890.544 238.402 889.756 238.108 888.832C237.815 887.908 237.668 886.873 237.668 885.728V884.643C237.668 883.497 237.818 882.462 238.119 881.538C238.427 880.607 238.864 879.816 239.43 879.164C240.003 878.512 240.687 878.011 241.481 877.66C242.276 877.309 243.164 877.134 244.146 877.134C245.449 877.134 246.548 877.37 247.443 877.843C248.346 878.315 249.044 878.967 249.538 879.798C250.039 880.629 250.34 881.574 250.44 882.634H247.218C247.182 882.004 247.057 881.47 246.842 881.033C246.627 880.589 246.301 880.256 245.864 880.034C245.435 879.805 244.862 879.69 244.146 879.69C243.608 879.69 243.139 879.791 242.738 879.991C242.337 880.192 242.001 880.496 241.729 880.904C241.456 881.312 241.252 881.828 241.116 882.451C240.987 883.067 240.923 883.79 240.923 884.621V885.728C240.923 886.537 240.984 887.249 241.105 887.865C241.227 888.474 241.413 888.99 241.664 889.412C241.922 889.827 242.251 890.143 242.652 890.357C243.061 890.565 243.551 890.669 244.124 890.669C244.797 890.669 245.352 890.562 245.789 890.347C246.226 890.132 246.559 889.813 246.788 889.391C247.024 888.968 247.164 888.442 247.207 887.812ZM251.848 887.307V887.081C251.848 886.229 251.969 885.445 252.213 884.729C252.456 884.005 252.811 883.379 253.276 882.849C253.742 882.319 254.315 881.907 254.995 881.613C255.675 881.312 256.456 881.162 257.337 881.162C258.218 881.162 259.002 881.312 259.689 881.613C260.377 881.907 260.953 882.319 261.419 882.849C261.892 883.379 262.25 884.005 262.493 884.729C262.737 885.445 262.858 886.229 262.858 887.081V887.307C262.858 888.152 262.737 888.936 262.493 889.659C262.25 890.375 261.892 891.002 261.419 891.539C260.953 892.069 260.381 892.481 259.7 892.774C259.02 893.068 258.239 893.215 257.358 893.215C256.478 893.215 255.693 893.068 255.006 892.774C254.326 892.481 253.749 892.069 253.276 891.539C252.811 891.002 252.456 890.375 252.213 889.659C251.969 888.936 251.848 888.152 251.848 887.307ZM254.941 887.081V887.307C254.941 887.794 254.984 888.248 255.07 888.671C255.156 889.093 255.292 889.466 255.479 889.788C255.672 890.103 255.923 890.35 256.23 890.529C256.538 890.708 256.914 890.798 257.358 890.798C257.788 890.798 258.157 890.708 258.465 890.529C258.773 890.35 259.02 890.103 259.206 889.788C259.392 889.466 259.528 889.093 259.614 888.671C259.707 888.248 259.754 887.794 259.754 887.307V887.081C259.754 886.608 259.707 886.164 259.614 885.749C259.528 885.326 259.389 884.954 259.195 884.632C259.009 884.302 258.762 884.045 258.454 883.858C258.146 883.672 257.774 883.579 257.337 883.579C256.9 883.579 256.528 883.672 256.22 883.858C255.919 884.045 255.672 884.302 255.479 884.632C255.292 884.954 255.156 885.326 255.07 885.749C254.984 886.164 254.941 886.608 254.941 887.081ZM267.789 883.858V893H264.695V881.377H267.596L267.789 883.858ZM267.338 886.78H266.5C266.5 885.921 266.611 885.147 266.833 884.46C267.055 883.765 267.367 883.174 267.768 882.688C268.169 882.193 268.645 881.817 269.196 881.56C269.755 881.295 270.378 881.162 271.065 881.162C271.61 881.162 272.107 881.241 272.559 881.398C273.01 881.556 273.396 881.807 273.719 882.15C274.048 882.494 274.299 882.949 274.471 883.515C274.65 884.08 274.739 884.771 274.739 885.588V893H271.624V885.577C271.624 885.062 271.552 884.66 271.409 884.374C271.266 884.088 271.055 883.887 270.775 883.772C270.503 883.651 270.167 883.59 269.766 883.59C269.35 883.59 268.989 883.672 268.681 883.837C268.38 884.002 268.129 884.231 267.929 884.524C267.735 884.811 267.589 885.147 267.488 885.534C267.388 885.921 267.338 886.336 267.338 886.78ZM280.121 883.858V893H277.027V881.377H279.928L280.121 883.858ZM279.67 886.78H278.832C278.832 885.921 278.943 885.147 279.165 884.46C279.387 883.765 279.699 883.174 280.1 882.688C280.501 882.193 280.977 881.817 281.528 881.56C282.087 881.295 282.71 881.162 283.397 881.162C283.942 881.162 284.439 881.241 284.891 881.398C285.342 881.556 285.729 881.807 286.051 882.15C286.38 882.494 286.631 882.949 286.803 883.515C286.982 884.08 287.071 884.771 287.071 885.588V893H283.956V885.577C283.956 885.062 283.884 884.66 283.741 884.374C283.598 884.088 283.387 883.887 283.107 883.772C282.835 883.651 282.499 883.59 282.098 883.59C281.682 883.59 281.321 883.672 281.013 883.837C280.712 884.002 280.461 884.231 280.261 884.524C280.067 884.811 279.921 885.147 279.82 885.534C279.72 885.921 279.67 886.336 279.67 886.78ZM294.773 893.215C293.871 893.215 293.062 893.072 292.346 892.785C291.63 892.492 291.021 892.087 290.52 891.571C290.025 891.056 289.646 890.458 289.381 889.777C289.116 889.09 288.983 888.359 288.983 887.586V887.156C288.983 886.275 289.109 885.47 289.359 884.739C289.61 884.009 289.968 883.375 290.434 882.838C290.906 882.301 291.479 881.889 292.152 881.603C292.826 881.309 293.585 881.162 294.43 881.162C295.253 881.162 295.984 881.298 296.621 881.57C297.258 881.842 297.792 882.229 298.222 882.73C298.659 883.232 298.988 883.833 299.21 884.535C299.432 885.23 299.543 886.003 299.543 886.855V888.145H290.305V886.082H296.503V885.846C296.503 885.416 296.424 885.033 296.267 884.696C296.116 884.353 295.887 884.08 295.579 883.88C295.271 883.679 294.877 883.579 294.397 883.579C293.989 883.579 293.638 883.669 293.345 883.848C293.051 884.027 292.811 884.277 292.625 884.6C292.446 884.922 292.31 885.301 292.217 885.738C292.131 886.168 292.088 886.641 292.088 887.156V887.586C292.088 888.051 292.152 888.481 292.281 888.875C292.417 889.269 292.607 889.609 292.851 889.896C293.101 890.182 293.402 890.404 293.753 890.562C294.111 890.719 294.516 890.798 294.967 890.798C295.525 890.798 296.045 890.69 296.524 890.476C297.011 890.254 297.43 889.921 297.781 889.477L299.285 891.109C299.042 891.46 298.709 891.797 298.286 892.119C297.871 892.441 297.369 892.706 296.782 892.914C296.195 893.115 295.525 893.215 294.773 893.215ZM306.106 890.798C306.486 890.798 306.823 890.726 307.116 890.583C307.41 890.433 307.639 890.225 307.804 889.96C307.976 889.688 308.065 889.369 308.072 889.004H310.983C310.976 889.82 310.758 890.547 310.328 891.185C309.898 891.815 309.322 892.312 308.599 892.678C307.875 893.036 307.066 893.215 306.171 893.215C305.269 893.215 304.481 893.064 303.808 892.764C303.142 892.463 302.587 892.048 302.143 891.518C301.699 890.98 301.366 890.357 301.144 889.648C300.922 888.932 300.811 888.166 300.811 887.35V887.038C300.811 886.215 300.922 885.448 301.144 884.739C301.366 884.023 301.699 883.4 302.143 882.87C302.587 882.333 303.142 881.914 303.808 881.613C304.474 881.312 305.254 881.162 306.149 881.162C307.102 881.162 307.936 881.345 308.652 881.71C309.376 882.075 309.941 882.598 310.35 883.278C310.765 883.951 310.976 884.75 310.983 885.674H308.072C308.065 885.287 307.983 884.936 307.825 884.621C307.675 884.306 307.453 884.055 307.159 883.869C306.873 883.676 306.518 883.579 306.096 883.579C305.645 883.579 305.276 883.676 304.989 883.869C304.703 884.055 304.481 884.313 304.323 884.643C304.166 884.965 304.055 885.334 303.99 885.749C303.933 886.157 303.904 886.587 303.904 887.038V887.35C303.904 887.801 303.933 888.234 303.99 888.649C304.048 889.065 304.155 889.434 304.312 889.756C304.477 890.078 304.703 890.332 304.989 890.519C305.276 890.705 305.648 890.798 306.106 890.798ZM318.471 881.377V883.568H311.703V881.377H318.471ZM313.379 878.509H316.473V889.498C316.473 889.835 316.516 890.092 316.602 890.271C316.695 890.451 316.831 890.576 317.01 890.647C317.189 890.712 317.414 890.744 317.687 890.744C317.88 890.744 318.052 890.737 318.202 890.723C318.36 890.701 318.492 890.68 318.6 890.658L318.61 892.936C318.345 893.021 318.059 893.09 317.751 893.14C317.443 893.19 317.103 893.215 316.73 893.215C316.05 893.215 315.456 893.104 314.947 892.882C314.446 892.653 314.059 892.287 313.787 891.786C313.515 891.285 313.379 890.626 313.379 889.81V878.509ZM329.03 889.992L331.447 881.377H333.413L332.779 884.761L330.362 893H328.719L329.03 889.992ZM327.806 881.377L329.535 889.981L329.696 893H327.763L324.819 881.377H327.806ZM335.626 889.842L337.312 881.377H340.31L337.366 893H335.443L335.626 889.842ZM333.682 881.377L336.088 889.928L336.421 893H334.767L332.35 884.771L331.737 881.377H333.682ZM345.133 881.377V893H342.028V881.377H345.133ZM341.835 878.348C341.835 877.896 341.993 877.524 342.308 877.23C342.623 876.937 343.045 876.79 343.575 876.79C344.098 876.79 344.517 876.937 344.832 877.23C345.154 877.524 345.315 877.896 345.315 878.348C345.315 878.799 345.154 879.171 344.832 879.465C344.517 879.758 344.098 879.905 343.575 879.905C343.045 879.905 342.623 879.758 342.308 879.465C341.993 879.171 341.835 878.799 341.835 878.348ZM353.383 881.377V883.568H346.615V881.377H353.383ZM348.291 878.509H351.385V889.498C351.385 889.835 351.428 890.092 351.514 890.271C351.607 890.451 351.743 890.576 351.922 890.647C352.101 890.712 352.326 890.744 352.599 890.744C352.792 890.744 352.964 890.737 353.114 890.723C353.272 890.701 353.404 890.68 353.512 890.658L353.522 892.936C353.257 893.021 352.971 893.09 352.663 893.14C352.355 893.19 352.015 893.215 351.643 893.215C350.962 893.215 350.368 893.104 349.859 892.882C349.358 892.653 348.971 892.287 348.699 891.786C348.427 891.285 348.291 890.626 348.291 889.81V878.509ZM358.163 876.5V893H355.069V876.5H358.163ZM357.723 886.78H356.874C356.881 885.971 356.989 885.226 357.196 884.546C357.404 883.858 357.701 883.264 358.088 882.763C358.475 882.254 358.937 881.86 359.474 881.581C360.018 881.302 360.619 881.162 361.278 881.162C361.851 881.162 362.37 881.244 362.836 881.409C363.309 881.567 363.713 881.825 364.05 882.183C364.394 882.534 364.659 882.995 364.845 883.568C365.031 884.141 365.124 884.836 365.124 885.652V893H362.009V885.631C362.009 885.115 361.934 884.711 361.783 884.417C361.64 884.116 361.429 883.905 361.149 883.783C360.877 883.654 360.541 883.59 360.14 883.59C359.696 883.59 359.316 883.672 359.001 883.837C358.693 884.002 358.446 884.231 358.26 884.524C358.074 884.811 357.938 885.147 357.852 885.534C357.766 885.921 357.723 886.336 357.723 886.78ZM379.229 890.379V885.201C379.229 884.829 379.168 884.51 379.046 884.245C378.924 883.973 378.734 883.762 378.477 883.611C378.226 883.461 377.9 883.386 377.499 883.386C377.155 883.386 376.858 883.447 376.607 883.568C376.357 883.683 376.163 883.851 376.027 884.073C375.891 884.288 375.823 884.542 375.823 884.836H372.729C372.729 884.342 372.844 883.873 373.073 883.429C373.302 882.985 373.635 882.594 374.072 882.258C374.509 881.914 375.028 881.646 375.63 881.452C376.239 881.259 376.919 881.162 377.671 881.162C378.573 881.162 379.375 881.312 380.077 881.613C380.779 881.914 381.33 882.365 381.731 882.967C382.14 883.568 382.344 884.32 382.344 885.223V890.196C382.344 890.834 382.383 891.356 382.462 891.765C382.541 892.166 382.655 892.517 382.806 892.817V893H379.68C379.529 892.685 379.415 892.291 379.336 891.818C379.264 891.339 379.229 890.859 379.229 890.379ZM379.637 885.921L379.658 887.672H377.929C377.521 887.672 377.166 887.718 376.865 887.812C376.564 887.905 376.317 888.037 376.124 888.209C375.931 888.374 375.787 888.567 375.694 888.789C375.608 889.011 375.565 889.255 375.565 889.52C375.565 889.785 375.626 890.024 375.748 890.239C375.87 890.447 376.045 890.612 376.274 890.733C376.504 890.848 376.772 890.905 377.08 890.905C377.546 890.905 377.95 890.812 378.294 890.626C378.638 890.44 378.903 890.211 379.089 889.938C379.282 889.666 379.382 889.409 379.39 889.165L380.206 890.476C380.091 890.769 379.934 891.074 379.733 891.389C379.54 891.704 379.293 892.001 378.992 892.28C378.691 892.552 378.33 892.778 377.907 892.957C377.485 893.129 376.983 893.215 376.403 893.215C375.666 893.215 374.996 893.068 374.395 892.774C373.8 892.474 373.327 892.062 372.977 891.539C372.633 891.009 372.461 890.408 372.461 889.734C372.461 889.126 372.576 888.585 372.805 888.112C373.034 887.64 373.37 887.242 373.814 886.92C374.266 886.59 374.828 886.343 375.501 886.179C376.174 886.007 376.955 885.921 377.843 885.921H379.637ZM387.758 883.858V893H384.664V881.377H387.564L387.758 883.858ZM387.307 886.78H386.469C386.469 885.921 386.58 885.147 386.802 884.46C387.024 883.765 387.335 883.174 387.736 882.688C388.137 882.193 388.614 881.817 389.165 881.56C389.724 881.295 390.347 881.162 391.034 881.162C391.578 881.162 392.076 881.241 392.527 881.398C392.979 881.556 393.365 881.807 393.688 882.15C394.017 882.494 394.268 882.949 394.439 883.515C394.618 884.08 394.708 884.771 394.708 885.588V893H391.593V885.577C391.593 885.062 391.521 884.66 391.378 884.374C391.235 884.088 391.023 883.887 390.744 883.772C390.472 883.651 390.135 883.59 389.734 883.59C389.319 883.59 388.957 883.672 388.649 883.837C388.349 884.002 388.098 884.231 387.897 884.524C387.704 884.811 387.557 885.147 387.457 885.534C387.357 885.921 387.307 886.336 387.307 886.78ZM400.509 891.689L403.592 881.377H406.911L402.238 894.751C402.138 895.045 402.002 895.36 401.83 895.696C401.665 896.033 401.44 896.352 401.153 896.652C400.874 896.96 400.52 897.211 400.09 897.404C399.667 897.598 399.148 897.694 398.532 897.694C398.239 897.694 397.999 897.676 397.812 897.641C397.626 897.605 397.404 897.555 397.146 897.49V895.224C397.225 895.224 397.308 895.224 397.394 895.224C397.479 895.231 397.562 895.234 397.641 895.234C398.049 895.234 398.382 895.188 398.64 895.095C398.897 895.002 399.105 894.858 399.263 894.665C399.42 894.479 399.546 894.235 399.639 893.935L400.509 891.689ZM399.22 881.377L401.744 889.799L402.185 893.075L400.079 893.301L395.9 881.377H399.22ZM420.489 890.465V876.5H423.604V893H420.801L420.489 890.465ZM413.142 887.328V887.103C413.142 886.215 413.242 885.409 413.442 884.686C413.643 883.955 413.937 883.328 414.323 882.806C414.71 882.283 415.186 881.878 415.752 881.592C416.318 881.305 416.962 881.162 417.686 881.162C418.366 881.162 418.96 881.305 419.469 881.592C419.984 881.878 420.421 882.286 420.779 882.816C421.145 883.339 421.438 883.959 421.66 884.675C421.882 885.384 422.043 886.161 422.144 887.006V887.5C422.043 888.309 421.882 889.061 421.66 889.756C421.438 890.451 421.145 891.059 420.779 891.582C420.421 892.098 419.984 892.499 419.469 892.785C418.953 893.072 418.352 893.215 417.664 893.215C416.941 893.215 416.296 893.068 415.73 892.774C415.172 892.481 414.699 892.069 414.312 891.539C413.933 891.009 413.643 890.386 413.442 889.67C413.242 888.954 413.142 888.173 413.142 887.328ZM416.235 887.103V887.328C416.235 887.808 416.271 888.256 416.343 888.671C416.422 889.086 416.547 889.455 416.719 889.777C416.898 890.092 417.127 890.34 417.406 890.519C417.693 890.69 418.04 890.776 418.448 890.776C418.978 890.776 419.415 890.658 419.759 890.422C420.103 890.178 420.364 889.845 420.543 889.423C420.729 889 420.837 888.513 420.865 887.962V886.555C420.844 886.104 420.779 885.699 420.672 885.341C420.572 884.976 420.421 884.664 420.221 884.406C420.027 884.148 419.784 883.948 419.49 883.805C419.204 883.661 418.864 883.59 418.47 883.59C418.069 883.59 417.725 883.683 417.438 883.869C417.152 884.048 416.919 884.295 416.74 884.61C416.568 884.925 416.439 885.298 416.354 885.728C416.275 886.15 416.235 886.608 416.235 887.103ZM431.371 893.215C430.469 893.215 429.66 893.072 428.943 892.785C428.227 892.492 427.618 892.087 427.117 891.571C426.623 891.056 426.243 890.458 425.979 889.777C425.714 889.09 425.581 888.359 425.581 887.586V887.156C425.581 886.275 425.706 885.47 425.957 884.739C426.208 884.009 426.566 883.375 427.031 882.838C427.504 882.301 428.077 881.889 428.75 881.603C429.423 881.309 430.182 881.162 431.027 881.162C431.851 881.162 432.581 881.298 433.219 881.57C433.856 881.842 434.39 882.229 434.819 882.73C435.256 883.232 435.586 883.833 435.808 884.535C436.03 885.23 436.141 886.003 436.141 886.855V888.145H426.902V886.082H433.101V885.846C433.101 885.416 433.022 885.033 432.864 884.696C432.714 884.353 432.485 884.08 432.177 883.88C431.869 883.679 431.475 883.579 430.995 883.579C430.587 883.579 430.236 883.669 429.942 883.848C429.649 884.027 429.409 884.277 429.223 884.6C429.044 884.922 428.908 885.301 428.814 885.738C428.729 886.168 428.686 886.641 428.686 887.156V887.586C428.686 888.051 428.75 888.481 428.879 888.875C429.015 889.269 429.205 889.609 429.448 889.896C429.699 890.182 430 890.404 430.351 890.562C430.709 890.719 431.113 890.798 431.564 890.798C432.123 890.798 432.642 890.69 433.122 890.476C433.609 890.254 434.028 889.921 434.379 889.477L435.883 891.109C435.639 891.46 435.306 891.797 434.884 892.119C434.468 892.441 433.967 892.706 433.38 892.914C432.793 893.115 432.123 893.215 431.371 893.215ZM441.705 890.744L444.283 881.377H447.517L443.596 893H441.641L441.705 890.744ZM439.933 881.377L442.521 890.755L442.575 893H440.609L436.688 881.377H439.933ZM452.168 881.377V893H449.063V881.377H452.168ZM448.87 878.348C448.87 877.896 449.028 877.524 449.343 877.23C449.658 876.937 450.08 876.79 450.61 876.79C451.133 876.79 451.552 876.937 451.867 877.23C452.189 877.524 452.351 877.896 452.351 878.348C452.351 878.799 452.189 879.171 451.867 879.465C451.552 879.758 451.133 879.905 450.61 879.905C450.08 879.905 449.658 879.758 449.343 879.465C449.028 879.171 448.87 878.799 448.87 878.348ZM459.526 890.798C459.906 890.798 460.243 890.726 460.536 890.583C460.83 890.433 461.059 890.225 461.224 889.96C461.396 889.688 461.485 889.369 461.492 889.004H464.403C464.396 889.82 464.178 890.547 463.748 891.185C463.318 891.815 462.742 892.312 462.019 892.678C461.295 893.036 460.486 893.215 459.591 893.215C458.688 893.215 457.901 893.064 457.228 892.764C456.562 892.463 456.007 892.048 455.562 891.518C455.118 890.98 454.785 890.357 454.563 889.648C454.341 888.932 454.23 888.166 454.23 887.35V887.038C454.23 886.215 454.341 885.448 454.563 884.739C454.785 884.023 455.118 883.4 455.562 882.87C456.007 882.333 456.562 881.914 457.228 881.613C457.894 881.312 458.674 881.162 459.569 881.162C460.522 881.162 461.356 881.345 462.072 881.71C462.796 882.075 463.361 882.598 463.77 883.278C464.185 883.951 464.396 884.75 464.403 885.674H461.492C461.485 885.287 461.403 884.936 461.245 884.621C461.095 884.306 460.873 884.055 460.579 883.869C460.293 883.676 459.938 883.579 459.516 883.579C459.064 883.579 458.696 883.676 458.409 883.869C458.123 884.055 457.901 884.313 457.743 884.643C457.586 884.965 457.475 885.334 457.41 885.749C457.353 886.157 457.324 886.587 457.324 887.038V887.35C457.324 887.801 457.353 888.234 457.41 888.649C457.467 889.065 457.575 889.434 457.732 889.756C457.897 890.078 458.123 890.332 458.409 890.519C458.696 890.705 459.068 890.798 459.526 890.798ZM471.547 893.215C470.645 893.215 469.835 893.072 469.119 892.785C468.403 892.492 467.794 892.087 467.293 891.571C466.799 891.056 466.419 890.458 466.154 889.777C465.889 889.09 465.757 888.359 465.757 887.586V887.156C465.757 886.275 465.882 885.47 466.133 884.739C466.383 884.009 466.742 883.375 467.207 882.838C467.68 882.301 468.253 881.889 468.926 881.603C469.599 881.309 470.358 881.162 471.203 881.162C472.027 881.162 472.757 881.298 473.395 881.57C474.032 881.842 474.565 882.229 474.995 882.73C475.432 883.232 475.761 883.833 475.983 884.535C476.205 885.23 476.316 886.003 476.316 886.855V888.145H467.078V886.082H473.276V885.846C473.276 885.416 473.198 885.033 473.04 884.696C472.89 884.353 472.66 884.08 472.353 883.88C472.045 883.679 471.651 883.579 471.171 883.579C470.763 883.579 470.412 883.669 470.118 883.848C469.825 884.027 469.585 884.277 469.398 884.6C469.219 884.922 469.083 885.301 468.99 885.738C468.904 886.168 468.861 886.641 468.861 887.156V887.586C468.861 888.051 468.926 888.481 469.055 888.875C469.191 889.269 469.381 889.609 469.624 889.896C469.875 890.182 470.175 890.404 470.526 890.562C470.884 890.719 471.289 890.798 471.74 890.798C472.299 890.798 472.818 890.69 473.298 890.476C473.785 890.254 474.204 889.921 474.555 889.477L476.059 891.109C475.815 891.46 475.482 891.797 475.06 892.119C474.644 892.441 474.143 892.706 473.556 892.914C472.968 893.115 472.299 893.215 471.547 893.215ZM478.229 891.507C478.229 891.049 478.386 890.665 478.701 890.357C479.023 890.049 479.45 889.896 479.979 889.896C480.509 889.896 480.932 890.049 481.247 890.357C481.569 890.665 481.73 891.049 481.73 891.507C481.73 891.965 481.569 892.348 481.247 892.656C480.932 892.964 480.509 893.118 479.979 893.118C479.45 893.118 479.023 892.964 478.701 892.656C478.386 892.348 478.229 891.965 478.229 891.507Z" fill="white"/>
<path d="M204.055 919.445V921H198.016V919.445H204.055ZM198.57 909.625V921H196.609V909.625H198.57ZM203.266 914.375V915.906H198.016V914.375H203.266ZM204.016 909.625V911.188H198.016V909.625H204.016ZM208.016 919.508L210.086 912.547H212.039L209.102 921H207.883L208.016 919.508ZM206.43 912.547L208.539 919.539L208.641 921H207.422L204.469 912.547H206.43ZM216.82 921.156C216.195 921.156 215.63 921.055 215.125 920.852C214.625 920.643 214.198 920.354 213.844 919.984C213.495 919.615 213.227 919.18 213.039 918.68C212.852 918.18 212.758 917.641 212.758 917.062V916.75C212.758 916.089 212.854 915.49 213.047 914.953C213.24 914.417 213.508 913.958 213.852 913.578C214.195 913.193 214.602 912.898 215.07 912.695C215.539 912.492 216.047 912.391 216.594 912.391C217.198 912.391 217.727 912.492 218.18 912.695C218.633 912.898 219.008 913.185 219.305 913.555C219.607 913.919 219.831 914.354 219.977 914.859C220.128 915.365 220.203 915.922 220.203 916.531V917.336H213.672V915.984H218.344V915.836C218.333 915.497 218.266 915.18 218.141 914.883C218.021 914.586 217.836 914.346 217.586 914.164C217.336 913.982 217.003 913.891 216.586 913.891C216.273 913.891 215.995 913.958 215.75 914.094C215.51 914.224 215.31 914.414 215.148 914.664C214.987 914.914 214.862 915.216 214.773 915.57C214.69 915.919 214.648 916.312 214.648 916.75V917.062C214.648 917.432 214.698 917.776 214.797 918.094C214.901 918.406 215.052 918.68 215.25 918.914C215.448 919.148 215.688 919.333 215.969 919.469C216.25 919.599 216.57 919.664 216.93 919.664C217.383 919.664 217.786 919.573 218.141 919.391C218.495 919.208 218.802 918.951 219.062 918.617L220.055 919.578C219.872 919.844 219.635 920.099 219.344 920.344C219.052 920.583 218.695 920.779 218.273 920.93C217.857 921.081 217.372 921.156 216.82 921.156ZM223.562 914.156V921H221.68V912.547H223.477L223.562 914.156ZM226.148 912.492L226.133 914.242C226.018 914.221 225.893 914.206 225.758 914.195C225.628 914.185 225.497 914.18 225.367 914.18C225.044 914.18 224.76 914.227 224.516 914.32C224.271 914.409 224.065 914.539 223.898 914.711C223.737 914.878 223.612 915.081 223.523 915.32C223.435 915.56 223.383 915.828 223.367 916.125L222.938 916.156C222.938 915.625 222.99 915.133 223.094 914.68C223.198 914.227 223.354 913.828 223.562 913.484C223.776 913.141 224.042 912.872 224.359 912.68C224.682 912.487 225.055 912.391 225.477 912.391C225.591 912.391 225.714 912.401 225.844 912.422C225.979 912.443 226.081 912.466 226.148 912.492ZM229.922 920.078L232.219 912.547H234.234L230.844 922.289C230.766 922.497 230.664 922.724 230.539 922.969C230.414 923.214 230.25 923.445 230.047 923.664C229.849 923.888 229.602 924.068 229.305 924.203C229.008 924.344 228.648 924.414 228.227 924.414C228.06 924.414 227.898 924.398 227.742 924.367C227.591 924.341 227.448 924.312 227.312 924.281L227.305 922.844C227.357 922.849 227.419 922.854 227.492 922.859C227.57 922.865 227.633 922.867 227.68 922.867C227.992 922.867 228.253 922.828 228.461 922.75C228.669 922.677 228.839 922.557 228.969 922.391C229.104 922.224 229.219 922 229.312 921.719L229.922 920.078ZM228.625 912.547L230.633 918.875L230.969 920.859L229.664 921.195L226.594 912.547H228.625ZM239.188 912.547V913.922H234.422V912.547H239.188ZM235.797 910.477H237.68V918.664C237.68 918.924 237.716 919.125 237.789 919.266C237.867 919.401 237.974 919.492 238.109 919.539C238.245 919.586 238.404 919.609 238.586 919.609C238.716 919.609 238.841 919.602 238.961 919.586C239.081 919.57 239.177 919.555 239.25 919.539L239.258 920.977C239.102 921.023 238.919 921.065 238.711 921.102C238.508 921.138 238.273 921.156 238.008 921.156C237.576 921.156 237.193 921.081 236.859 920.93C236.526 920.773 236.266 920.521 236.078 920.172C235.891 919.823 235.797 919.359 235.797 918.781V910.477ZM242.5 909V921H240.625V909H242.5ZM242.172 916.461L241.562 916.453C241.568 915.87 241.648 915.331 241.805 914.836C241.966 914.341 242.19 913.911 242.477 913.547C242.768 913.177 243.117 912.893 243.523 912.695C243.93 912.492 244.38 912.391 244.875 912.391C245.292 912.391 245.667 912.448 246 912.562C246.339 912.677 246.63 912.862 246.875 913.117C247.12 913.367 247.305 913.695 247.43 914.102C247.56 914.503 247.625 914.992 247.625 915.57V921H245.734V915.555C245.734 915.148 245.674 914.826 245.555 914.586C245.44 914.346 245.271 914.174 245.047 914.07C244.823 913.961 244.549 913.906 244.227 913.906C243.888 913.906 243.589 913.974 243.328 914.109C243.073 914.245 242.859 914.43 242.688 914.664C242.516 914.898 242.385 915.169 242.297 915.477C242.214 915.784 242.172 916.112 242.172 916.461ZM251.547 912.547V921H249.656V912.547H251.547ZM249.531 910.328C249.531 910.042 249.625 909.805 249.812 909.617C250.005 909.424 250.271 909.328 250.609 909.328C250.943 909.328 251.206 909.424 251.398 909.617C251.591 909.805 251.688 910.042 251.688 910.328C251.688 910.609 251.591 910.844 251.398 911.031C251.206 911.219 250.943 911.312 250.609 911.312C250.271 911.312 250.005 911.219 249.812 911.031C249.625 910.844 249.531 910.609 249.531 910.328ZM255.477 914.352V921H253.594V912.547H255.367L255.477 914.352ZM255.141 916.461L254.531 916.453C254.536 915.854 254.62 915.305 254.781 914.805C254.948 914.305 255.177 913.875 255.469 913.516C255.766 913.156 256.12 912.88 256.531 912.688C256.943 912.49 257.401 912.391 257.906 912.391C258.312 912.391 258.68 912.448 259.008 912.562C259.341 912.672 259.625 912.852 259.859 913.102C260.099 913.352 260.281 913.677 260.406 914.078C260.531 914.474 260.594 914.961 260.594 915.539V921H258.703V915.531C258.703 915.125 258.643 914.805 258.523 914.57C258.409 914.331 258.24 914.161 258.016 914.062C257.797 913.958 257.523 913.906 257.195 913.906C256.872 913.906 256.583 913.974 256.328 914.109C256.073 914.245 255.857 914.43 255.68 914.664C255.508 914.898 255.375 915.169 255.281 915.477C255.188 915.784 255.141 916.112 255.141 916.461ZM267.93 912.547H269.641V920.766C269.641 921.526 269.479 922.172 269.156 922.703C268.833 923.234 268.383 923.638 267.805 923.914C267.227 924.195 266.557 924.336 265.797 924.336C265.474 924.336 265.115 924.289 264.719 924.195C264.328 924.102 263.948 923.951 263.578 923.742C263.214 923.539 262.909 923.271 262.664 922.938L263.547 921.828C263.849 922.188 264.182 922.451 264.547 922.617C264.911 922.784 265.294 922.867 265.695 922.867C266.128 922.867 266.495 922.786 266.797 922.625C267.104 922.469 267.341 922.237 267.508 921.93C267.674 921.622 267.758 921.247 267.758 920.805V914.461L267.93 912.547ZM262.188 916.867V916.703C262.188 916.062 262.266 915.479 262.422 914.953C262.578 914.422 262.802 913.966 263.094 913.586C263.385 913.201 263.74 912.906 264.156 912.703C264.573 912.495 265.044 912.391 265.57 912.391C266.117 912.391 266.583 912.49 266.969 912.688C267.359 912.885 267.685 913.169 267.945 913.539C268.206 913.904 268.409 914.341 268.555 914.852C268.706 915.357 268.818 915.919 268.891 916.539V917.062C268.823 917.667 268.708 918.219 268.547 918.719C268.385 919.219 268.172 919.651 267.906 920.016C267.641 920.38 267.312 920.661 266.922 920.859C266.536 921.057 266.081 921.156 265.555 921.156C265.039 921.156 264.573 921.049 264.156 920.836C263.745 920.622 263.391 920.323 263.094 919.938C262.802 919.552 262.578 919.099 262.422 918.578C262.266 918.052 262.188 917.482 262.188 916.867ZM264.07 916.703V916.867C264.07 917.253 264.107 917.612 264.18 917.945C264.258 918.279 264.375 918.573 264.531 918.828C264.693 919.078 264.896 919.276 265.141 919.422C265.391 919.562 265.685 919.633 266.023 919.633C266.466 919.633 266.828 919.539 267.109 919.352C267.396 919.164 267.615 918.911 267.766 918.594C267.922 918.271 268.031 917.911 268.094 917.516V916.102C268.062 915.794 267.997 915.508 267.898 915.242C267.805 914.977 267.677 914.745 267.516 914.547C267.354 914.344 267.151 914.188 266.906 914.078C266.661 913.964 266.372 913.906 266.039 913.906C265.701 913.906 265.406 913.979 265.156 914.125C264.906 914.271 264.701 914.471 264.539 914.727C264.383 914.982 264.266 915.279 264.188 915.617C264.109 915.956 264.07 916.318 264.07 916.703ZM278.031 920.078L280.328 912.547H282.344L278.953 922.289C278.875 922.497 278.773 922.724 278.648 922.969C278.523 923.214 278.359 923.445 278.156 923.664C277.958 923.888 277.711 924.068 277.414 924.203C277.117 924.344 276.758 924.414 276.336 924.414C276.169 924.414 276.008 924.398 275.852 924.367C275.701 924.341 275.557 924.312 275.422 924.281L275.414 922.844C275.466 922.849 275.529 922.854 275.602 922.859C275.68 922.865 275.742 922.867 275.789 922.867C276.102 922.867 276.362 922.828 276.57 922.75C276.779 922.677 276.948 922.557 277.078 922.391C277.214 922.224 277.328 922 277.422 921.719L278.031 920.078ZM276.734 912.547L278.742 918.875L279.078 920.859L277.773 921.195L274.703 912.547H276.734ZM282.938 916.867V916.688C282.938 916.078 283.026 915.513 283.203 914.992C283.38 914.466 283.635 914.01 283.969 913.625C284.307 913.234 284.719 912.932 285.203 912.719C285.693 912.5 286.245 912.391 286.859 912.391C287.479 912.391 288.031 912.5 288.516 912.719C289.005 912.932 289.419 913.234 289.758 913.625C290.096 914.01 290.354 914.466 290.531 914.992C290.708 915.513 290.797 916.078 290.797 916.688V916.867C290.797 917.477 290.708 918.042 290.531 918.562C290.354 919.083 290.096 919.539 289.758 919.93C289.419 920.315 289.008 920.617 288.523 920.836C288.039 921.049 287.49 921.156 286.875 921.156C286.255 921.156 285.701 921.049 285.211 920.836C284.727 920.617 284.315 920.315 283.977 919.93C283.638 919.539 283.38 919.083 283.203 918.562C283.026 918.042 282.938 917.477 282.938 916.867ZM284.82 916.688V916.867C284.82 917.247 284.859 917.607 284.938 917.945C285.016 918.284 285.138 918.581 285.305 918.836C285.471 919.091 285.685 919.292 285.945 919.438C286.206 919.583 286.516 919.656 286.875 919.656C287.224 919.656 287.526 919.583 287.781 919.438C288.042 919.292 288.255 919.091 288.422 918.836C288.589 918.581 288.711 918.284 288.789 917.945C288.872 917.607 288.914 917.247 288.914 916.867V916.688C288.914 916.312 288.872 915.958 288.789 915.625C288.711 915.286 288.586 914.987 288.414 914.727C288.247 914.466 288.034 914.263 287.773 914.117C287.518 913.966 287.214 913.891 286.859 913.891C286.505 913.891 286.198 913.966 285.938 914.117C285.682 914.263 285.471 914.466 285.305 914.727C285.138 914.987 285.016 915.286 284.938 915.625C284.859 915.958 284.82 916.312 284.82 916.688ZM297.461 919.008V912.547H299.352V921H297.57L297.461 919.008ZM297.727 917.25L298.359 917.234C298.359 917.802 298.297 918.326 298.172 918.805C298.047 919.279 297.854 919.693 297.594 920.047C297.333 920.396 297 920.669 296.594 920.867C296.188 921.06 295.701 921.156 295.133 921.156C294.721 921.156 294.344 921.096 294 920.977C293.656 920.857 293.359 920.672 293.109 920.422C292.865 920.172 292.674 919.846 292.539 919.445C292.404 919.044 292.336 918.565 292.336 918.008V912.547H294.219V918.023C294.219 918.331 294.255 918.589 294.328 918.797C294.401 919 294.5 919.164 294.625 919.289C294.75 919.414 294.896 919.503 295.062 919.555C295.229 919.607 295.406 919.633 295.594 919.633C296.13 919.633 296.552 919.529 296.859 919.32C297.172 919.107 297.393 918.82 297.523 918.461C297.659 918.102 297.727 917.698 297.727 917.25ZM307.133 914.352V921H305.25V912.547H307.023L307.133 914.352ZM306.797 916.461L306.188 916.453C306.193 915.854 306.276 915.305 306.438 914.805C306.604 914.305 306.833 913.875 307.125 913.516C307.422 913.156 307.776 912.88 308.188 912.688C308.599 912.49 309.057 912.391 309.562 912.391C309.969 912.391 310.336 912.448 310.664 912.562C310.997 912.672 311.281 912.852 311.516 913.102C311.755 913.352 311.938 913.677 312.062 914.078C312.188 914.474 312.25 914.961 312.25 915.539V921H310.359V915.531C310.359 915.125 310.299 914.805 310.18 914.57C310.065 914.331 309.896 914.161 309.672 914.062C309.453 913.958 309.18 913.906 308.852 913.906C308.529 913.906 308.24 913.974 307.984 914.109C307.729 914.245 307.513 914.43 307.336 914.664C307.164 914.898 307.031 915.169 306.938 915.477C306.844 915.784 306.797 916.112 306.797 916.461ZM317.898 921.156C317.273 921.156 316.708 921.055 316.203 920.852C315.703 920.643 315.276 920.354 314.922 919.984C314.573 919.615 314.305 919.18 314.117 918.68C313.93 918.18 313.836 917.641 313.836 917.062V916.75C313.836 916.089 313.932 915.49 314.125 914.953C314.318 914.417 314.586 913.958 314.93 913.578C315.273 913.193 315.68 912.898 316.148 912.695C316.617 912.492 317.125 912.391 317.672 912.391C318.276 912.391 318.805 912.492 319.258 912.695C319.711 912.898 320.086 913.185 320.383 913.555C320.685 913.919 320.909 914.354 321.055 914.859C321.206 915.365 321.281 915.922 321.281 916.531V917.336H314.75V915.984H319.422V915.836C319.411 915.497 319.344 915.18 319.219 914.883C319.099 914.586 318.914 914.346 318.664 914.164C318.414 913.982 318.081 913.891 317.664 913.891C317.352 913.891 317.073 913.958 316.828 914.094C316.589 914.224 316.388 914.414 316.227 914.664C316.065 914.914 315.94 915.216 315.852 915.57C315.768 915.919 315.727 916.312 315.727 916.75V917.062C315.727 917.432 315.776 917.776 315.875 918.094C315.979 918.406 316.13 918.68 316.328 918.914C316.526 919.148 316.766 919.333 317.047 919.469C317.328 919.599 317.648 919.664 318.008 919.664C318.461 919.664 318.865 919.573 319.219 919.391C319.573 919.208 319.88 918.951 320.141 918.617L321.133 919.578C320.951 919.844 320.714 920.099 320.422 920.344C320.13 920.583 319.773 920.779 319.352 920.93C318.935 921.081 318.451 921.156 317.898 921.156ZM326.477 921.156C325.852 921.156 325.286 921.055 324.781 920.852C324.281 920.643 323.854 920.354 323.5 919.984C323.151 919.615 322.883 919.18 322.695 918.68C322.508 918.18 322.414 917.641 322.414 917.062V916.75C322.414 916.089 322.51 915.49 322.703 914.953C322.896 914.417 323.164 913.958 323.508 913.578C323.852 913.193 324.258 912.898 324.727 912.695C325.195 912.492 325.703 912.391 326.25 912.391C326.854 912.391 327.383 912.492 327.836 912.695C328.289 912.898 328.664 913.185 328.961 913.555C329.263 913.919 329.487 914.354 329.633 914.859C329.784 915.365 329.859 915.922 329.859 916.531V917.336H323.328V915.984H328V915.836C327.99 915.497 327.922 915.18 327.797 914.883C327.677 914.586 327.492 914.346 327.242 914.164C326.992 913.982 326.659 913.891 326.242 913.891C325.93 913.891 325.651 913.958 325.406 914.094C325.167 914.224 324.966 914.414 324.805 914.664C324.643 914.914 324.518 915.216 324.43 915.57C324.346 915.919 324.305 916.312 324.305 916.75V917.062C324.305 917.432 324.354 917.776 324.453 918.094C324.557 918.406 324.708 918.68 324.906 918.914C325.104 919.148 325.344 919.333 325.625 919.469C325.906 919.599 326.227 919.664 326.586 919.664C327.039 919.664 327.443 919.573 327.797 919.391C328.151 919.208 328.458 918.951 328.719 918.617L329.711 919.578C329.529 919.844 329.292 920.099 329 920.344C328.708 920.583 328.352 920.779 327.93 920.93C327.513 921.081 327.029 921.156 326.477 921.156ZM336.484 919.25V909H338.375V921H336.664L336.484 919.25ZM330.984 916.867V916.703C330.984 916.062 331.06 915.479 331.211 914.953C331.362 914.422 331.581 913.966 331.867 913.586C332.154 913.201 332.503 912.906 332.914 912.703C333.326 912.495 333.789 912.391 334.305 912.391C334.815 912.391 335.263 912.49 335.648 912.688C336.034 912.885 336.362 913.169 336.633 913.539C336.904 913.904 337.12 914.341 337.281 914.852C337.443 915.357 337.557 915.919 337.625 916.539V917.062C337.557 917.667 337.443 918.219 337.281 918.719C337.12 919.219 336.904 919.651 336.633 920.016C336.362 920.38 336.031 920.661 335.641 920.859C335.255 921.057 334.805 921.156 334.289 921.156C333.779 921.156 333.318 921.049 332.906 920.836C332.5 920.622 332.154 920.323 331.867 919.938C331.581 919.552 331.362 919.099 331.211 918.578C331.06 918.052 330.984 917.482 330.984 916.867ZM332.867 916.703V916.867C332.867 917.253 332.901 917.612 332.969 917.945C333.042 918.279 333.154 918.573 333.305 918.828C333.456 919.078 333.651 919.276 333.891 919.422C334.135 919.562 334.427 919.633 334.766 919.633C335.193 919.633 335.544 919.539 335.82 919.352C336.096 919.164 336.312 918.911 336.469 918.594C336.63 918.271 336.74 917.911 336.797 917.516V916.102C336.766 915.794 336.701 915.508 336.602 915.242C336.508 914.977 336.38 914.745 336.219 914.547C336.057 914.344 335.857 914.188 335.617 914.078C335.383 913.964 335.104 913.906 334.781 913.906C334.438 913.906 334.146 913.979 333.906 914.125C333.667 914.271 333.469 914.471 333.312 914.727C333.161 914.982 333.049 915.279 332.977 915.617C332.904 915.956 332.867 916.318 332.867 916.703ZM346.344 912.547V921H344.453V912.547H346.344ZM344.328 910.328C344.328 910.042 344.422 909.805 344.609 909.617C344.802 909.424 345.068 909.328 345.406 909.328C345.74 909.328 346.003 909.424 346.195 909.617C346.388 909.805 346.484 910.042 346.484 910.328C346.484 910.609 346.388 910.844 346.195 911.031C346.003 911.219 345.74 911.312 345.406 911.312C345.068 911.312 344.802 911.219 344.609 911.031C344.422 910.844 344.328 910.609 344.328 910.328ZM353.148 918.711C353.148 918.523 353.102 918.354 353.008 918.203C352.914 918.047 352.734 917.906 352.469 917.781C352.208 917.656 351.823 917.542 351.312 917.438C350.865 917.339 350.453 917.221 350.078 917.086C349.708 916.945 349.391 916.776 349.125 916.578C348.859 916.38 348.654 916.146 348.508 915.875C348.362 915.604 348.289 915.292 348.289 914.938C348.289 914.594 348.365 914.268 348.516 913.961C348.667 913.654 348.883 913.383 349.164 913.148C349.445 912.914 349.786 912.729 350.188 912.594C350.594 912.458 351.047 912.391 351.547 912.391C352.255 912.391 352.862 912.51 353.367 912.75C353.878 912.984 354.268 913.305 354.539 913.711C354.81 914.112 354.945 914.565 354.945 915.07H353.062C353.062 914.846 353.005 914.638 352.891 914.445C352.781 914.247 352.615 914.089 352.391 913.969C352.167 913.844 351.885 913.781 351.547 913.781C351.224 913.781 350.956 913.833 350.742 913.938C350.534 914.036 350.378 914.167 350.273 914.328C350.174 914.49 350.125 914.667 350.125 914.859C350.125 915 350.151 915.128 350.203 915.242C350.26 915.352 350.354 915.453 350.484 915.547C350.615 915.635 350.792 915.719 351.016 915.797C351.245 915.875 351.531 915.951 351.875 916.023C352.521 916.159 353.076 916.333 353.539 916.547C354.008 916.755 354.367 917.026 354.617 917.359C354.867 917.688 354.992 918.104 354.992 918.609C354.992 918.984 354.911 919.328 354.75 919.641C354.594 919.948 354.365 920.216 354.062 920.445C353.76 920.669 353.398 920.844 352.977 920.969C352.56 921.094 352.091 921.156 351.57 921.156C350.805 921.156 350.156 921.021 349.625 920.75C349.094 920.474 348.69 920.122 348.414 919.695C348.143 919.263 348.008 918.815 348.008 918.352H349.828C349.849 918.701 349.945 918.979 350.117 919.188C350.294 919.391 350.513 919.539 350.773 919.633C351.039 919.721 351.312 919.766 351.594 919.766C351.932 919.766 352.216 919.721 352.445 919.633C352.674 919.539 352.849 919.414 352.969 919.258C353.089 919.096 353.148 918.914 353.148 918.711ZM365.391 919.305V915.273C365.391 914.971 365.336 914.711 365.227 914.492C365.117 914.273 364.951 914.104 364.727 913.984C364.508 913.865 364.232 913.805 363.898 913.805C363.591 913.805 363.326 913.857 363.102 913.961C362.878 914.065 362.703 914.206 362.578 914.383C362.453 914.56 362.391 914.76 362.391 914.984H360.516C360.516 914.651 360.596 914.328 360.758 914.016C360.919 913.703 361.154 913.424 361.461 913.18C361.768 912.935 362.135 912.742 362.562 912.602C362.99 912.461 363.469 912.391 364 912.391C364.635 912.391 365.198 912.497 365.688 912.711C366.182 912.924 366.57 913.247 366.852 913.68C367.138 914.107 367.281 914.643 367.281 915.289V919.047C367.281 919.432 367.307 919.779 367.359 920.086C367.417 920.388 367.497 920.651 367.602 920.875V921H365.672C365.583 920.797 365.513 920.539 365.461 920.227C365.414 919.909 365.391 919.602 365.391 919.305ZM365.664 915.859L365.68 917.023H364.328C363.979 917.023 363.672 917.057 363.406 917.125C363.141 917.188 362.919 917.281 362.742 917.406C362.565 917.531 362.432 917.682 362.344 917.859C362.255 918.036 362.211 918.237 362.211 918.461C362.211 918.685 362.263 918.891 362.367 919.078C362.471 919.26 362.622 919.404 362.82 919.508C363.023 919.612 363.268 919.664 363.555 919.664C363.94 919.664 364.276 919.586 364.562 919.43C364.854 919.268 365.083 919.073 365.25 918.844C365.417 918.609 365.505 918.388 365.516 918.18L366.125 919.016C366.062 919.229 365.956 919.458 365.805 919.703C365.654 919.948 365.456 920.182 365.211 920.406C364.971 920.625 364.682 920.805 364.344 920.945C364.01 921.086 363.625 921.156 363.188 921.156C362.635 921.156 362.143 921.047 361.711 920.828C361.279 920.604 360.94 920.305 360.695 919.93C360.451 919.549 360.328 919.12 360.328 918.641C360.328 918.193 360.411 917.797 360.578 917.453C360.75 917.104 361 916.812 361.328 916.578C361.661 916.344 362.068 916.167 362.547 916.047C363.026 915.922 363.573 915.859 364.188 915.859H365.664ZM371.117 914.352V921H369.234V912.547H371.008L371.117 914.352ZM370.781 916.461L370.172 916.453C370.177 915.854 370.26 915.305 370.422 914.805C370.589 914.305 370.818 913.875 371.109 913.516C371.406 913.156 371.76 912.88 372.172 912.688C372.583 912.49 373.042 912.391 373.547 912.391C373.953 912.391 374.32 912.448 374.648 912.562C374.982 912.672 375.266 912.852 375.5 913.102C375.74 913.352 375.922 913.677 376.047 914.078C376.172 914.474 376.234 914.961 376.234 915.539V921H374.344V915.531C374.344 915.125 374.284 914.805 374.164 914.57C374.049 914.331 373.88 914.161 373.656 914.062C373.438 913.958 373.164 913.906 372.836 913.906C372.513 913.906 372.224 913.974 371.969 914.109C371.714 914.245 371.497 914.43 371.32 914.664C371.148 914.898 371.016 915.169 370.922 915.477C370.828 915.784 370.781 916.112 370.781 916.461ZM384.156 912.547V921H382.266V912.547H384.156ZM382.141 910.328C382.141 910.042 382.234 909.805 382.422 909.617C382.615 909.424 382.88 909.328 383.219 909.328C383.552 909.328 383.815 909.424 384.008 909.617C384.201 909.805 384.297 910.042 384.297 910.328C384.297 910.609 384.201 910.844 384.008 911.031C383.815 911.219 383.552 911.312 383.219 911.312C382.88 911.312 382.615 911.219 382.422 911.031C382.234 910.844 382.141 910.609 382.141 910.328ZM388.086 914.352V921H386.203V912.547H387.977L388.086 914.352ZM387.75 916.461L387.141 916.453C387.146 915.854 387.229 915.305 387.391 914.805C387.557 914.305 387.786 913.875 388.078 913.516C388.375 913.156 388.729 912.88 389.141 912.688C389.552 912.49 390.01 912.391 390.516 912.391C390.922 912.391 391.289 912.448 391.617 912.562C391.951 912.672 392.234 912.852 392.469 913.102C392.708 913.352 392.891 913.677 393.016 914.078C393.141 914.474 393.203 914.961 393.203 915.539V921H391.312V915.531C391.312 915.125 391.253 914.805 391.133 914.57C391.018 914.331 390.849 914.161 390.625 914.062C390.406 913.958 390.133 913.906 389.805 913.906C389.482 913.906 389.193 913.974 388.938 914.109C388.682 914.245 388.466 914.43 388.289 914.664C388.117 914.898 387.984 915.169 387.891 915.477C387.797 915.784 387.75 916.112 387.75 916.461ZM399 912.547V913.922H394.234V912.547H399ZM395.609 910.477H397.492V918.664C397.492 918.924 397.529 919.125 397.602 919.266C397.68 919.401 397.786 919.492 397.922 919.539C398.057 919.586 398.216 919.609 398.398 919.609C398.529 919.609 398.654 919.602 398.773 919.586C398.893 919.57 398.99 919.555 399.062 919.539L399.07 920.977C398.914 921.023 398.732 921.065 398.523 921.102C398.32 921.138 398.086 921.156 397.82 921.156C397.388 921.156 397.005 921.081 396.672 920.93C396.339 920.773 396.078 920.521 395.891 920.172C395.703 919.823 395.609 919.359 395.609 918.781V910.477ZM404.18 921.156C403.555 921.156 402.99 921.055 402.484 920.852C401.984 920.643 401.557 920.354 401.203 919.984C400.854 919.615 400.586 919.18 400.398 918.68C400.211 918.18 400.117 917.641 400.117 917.062V916.75C400.117 916.089 400.214 915.49 400.406 914.953C400.599 914.417 400.867 913.958 401.211 913.578C401.555 913.193 401.961 912.898 402.43 912.695C402.898 912.492 403.406 912.391 403.953 912.391C404.557 912.391 405.086 912.492 405.539 912.695C405.992 912.898 406.367 913.185 406.664 913.555C406.966 913.919 407.19 914.354 407.336 914.859C407.487 915.365 407.562 915.922 407.562 916.531V917.336H401.031V915.984H405.703V915.836C405.693 915.497 405.625 915.18 405.5 914.883C405.38 914.586 405.195 914.346 404.945 914.164C404.695 913.982 404.362 913.891 403.945 913.891C403.633 913.891 403.354 913.958 403.109 914.094C402.87 914.224 402.669 914.414 402.508 914.664C402.346 914.914 402.221 915.216 402.133 915.57C402.049 915.919 402.008 916.312 402.008 916.75V917.062C402.008 917.432 402.057 917.776 402.156 918.094C402.26 918.406 402.411 918.68 402.609 918.914C402.807 919.148 403.047 919.333 403.328 919.469C403.609 919.599 403.93 919.664 404.289 919.664C404.742 919.664 405.146 919.573 405.5 919.391C405.854 919.208 406.161 918.951 406.422 918.617L407.414 919.578C407.232 919.844 406.995 920.099 406.703 920.344C406.411 920.583 406.055 920.779 405.633 920.93C405.216 921.081 404.732 921.156 404.18 921.156ZM410.922 914.156V921H409.039V912.547H410.836L410.922 914.156ZM413.508 912.492L413.492 914.242C413.378 914.221 413.253 914.206 413.117 914.195C412.987 914.185 412.857 914.18 412.727 914.18C412.404 914.18 412.12 914.227 411.875 914.32C411.63 914.409 411.424 914.539 411.258 914.711C411.096 914.878 410.971 915.081 410.883 915.32C410.794 915.56 410.742 915.828 410.727 916.125L410.297 916.156C410.297 915.625 410.349 915.133 410.453 914.68C410.557 914.227 410.714 913.828 410.922 913.484C411.135 913.141 411.401 912.872 411.719 912.68C412.042 912.487 412.414 912.391 412.836 912.391C412.951 912.391 413.073 912.401 413.203 912.422C413.339 912.443 413.44 912.466 413.508 912.492ZM416.555 914.352V921H414.672V912.547H416.445L416.555 914.352ZM416.219 916.461L415.609 916.453C415.615 915.854 415.698 915.305 415.859 914.805C416.026 914.305 416.255 913.875 416.547 913.516C416.844 913.156 417.198 912.88 417.609 912.688C418.021 912.49 418.479 912.391 418.984 912.391C419.391 912.391 419.758 912.448 420.086 912.562C420.419 912.672 420.703 912.852 420.938 913.102C421.177 913.352 421.359 913.677 421.484 914.078C421.609 914.474 421.672 914.961 421.672 915.539V921H419.781V915.531C419.781 915.125 419.721 914.805 419.602 914.57C419.487 914.331 419.318 914.161 419.094 914.062C418.875 913.958 418.602 913.906 418.273 913.906C417.951 913.906 417.661 913.974 417.406 914.109C417.151 914.245 416.935 914.43 416.758 914.664C416.586 914.898 416.453 915.169 416.359 915.477C416.266 915.784 416.219 916.112 416.219 916.461ZM427.32 921.156C426.695 921.156 426.13 921.055 425.625 920.852C425.125 920.643 424.698 920.354 424.344 919.984C423.995 919.615 423.727 919.18 423.539 918.68C423.352 918.18 423.258 917.641 423.258 917.062V916.75C423.258 916.089 423.354 915.49 423.547 914.953C423.74 914.417 424.008 913.958 424.352 913.578C424.695 913.193 425.102 912.898 425.57 912.695C426.039 912.492 426.547 912.391 427.094 912.391C427.698 912.391 428.227 912.492 428.68 912.695C429.133 912.898 429.508 913.185 429.805 913.555C430.107 913.919 430.331 914.354 430.477 914.859C430.628 915.365 430.703 915.922 430.703 916.531V917.336H424.172V915.984H428.844V915.836C428.833 915.497 428.766 915.18 428.641 914.883C428.521 914.586 428.336 914.346 428.086 914.164C427.836 913.982 427.503 913.891 427.086 913.891C426.773 913.891 426.495 913.958 426.25 914.094C426.01 914.224 425.81 914.414 425.648 914.664C425.487 914.914 425.362 915.216 425.273 915.57C425.19 915.919 425.148 916.312 425.148 916.75V917.062C425.148 917.432 425.198 917.776 425.297 918.094C425.401 918.406 425.552 918.68 425.75 918.914C425.948 919.148 426.188 919.333 426.469 919.469C426.75 919.599 427.07 919.664 427.43 919.664C427.883 919.664 428.286 919.573 428.641 919.391C428.995 919.208 429.302 918.951 429.562 918.617L430.555 919.578C430.372 919.844 430.135 920.099 429.844 920.344C429.552 920.583 429.195 920.779 428.773 920.93C428.357 921.081 427.872 921.156 427.32 921.156ZM436.047 912.547V913.922H431.281V912.547H436.047ZM432.656 910.477H434.539V918.664C434.539 918.924 434.576 919.125 434.648 919.266C434.727 919.401 434.833 919.492 434.969 919.539C435.104 919.586 435.263 919.609 435.445 919.609C435.576 919.609 435.701 919.602 435.82 919.586C435.94 919.57 436.036 919.555 436.109 919.539L436.117 920.977C435.961 921.023 435.779 921.065 435.57 921.102C435.367 921.138 435.133 921.156 434.867 921.156C434.435 921.156 434.052 921.081 433.719 920.93C433.385 920.773 433.125 920.521 432.938 920.172C432.75 919.823 432.656 919.359 432.656 918.781V910.477ZM444.938 919.656C445.245 919.656 445.521 919.596 445.766 919.477C446.016 919.352 446.216 919.18 446.367 918.961C446.523 918.742 446.609 918.49 446.625 918.203H448.398C448.388 918.75 448.227 919.247 447.914 919.695C447.602 920.143 447.188 920.5 446.672 920.766C446.156 921.026 445.586 921.156 444.961 921.156C444.315 921.156 443.753 921.047 443.273 920.828C442.794 920.604 442.396 920.297 442.078 919.906C441.76 919.516 441.521 919.065 441.359 918.555C441.203 918.044 441.125 917.497 441.125 916.914V916.641C441.125 916.057 441.203 915.51 441.359 915C441.521 914.484 441.76 914.031 442.078 913.641C442.396 913.25 442.794 912.945 443.273 912.727C443.753 912.503 444.312 912.391 444.953 912.391C445.63 912.391 446.224 912.526 446.734 912.797C447.245 913.062 447.646 913.435 447.938 913.914C448.234 914.388 448.388 914.94 448.398 915.57H446.625C446.609 915.258 446.531 914.977 446.391 914.727C446.255 914.471 446.062 914.268 445.812 914.117C445.568 913.966 445.273 913.891 444.93 913.891C444.549 913.891 444.234 913.969 443.984 914.125C443.734 914.276 443.539 914.484 443.398 914.75C443.258 915.01 443.156 915.305 443.094 915.633C443.036 915.956 443.008 916.292 443.008 916.641V916.914C443.008 917.263 443.036 917.602 443.094 917.93C443.151 918.258 443.25 918.552 443.391 918.812C443.536 919.068 443.734 919.273 443.984 919.43C444.234 919.581 444.552 919.656 444.938 919.656ZM449.484 916.867V916.688C449.484 916.078 449.573 915.513 449.75 914.992C449.927 914.466 450.182 914.01 450.516 913.625C450.854 913.234 451.266 912.932 451.75 912.719C452.24 912.5 452.792 912.391 453.406 912.391C454.026 912.391 454.578 912.5 455.062 912.719C455.552 912.932 455.966 913.234 456.305 913.625C456.643 914.01 456.901 914.466 457.078 914.992C457.255 915.513 457.344 916.078 457.344 916.688V916.867C457.344 917.477 457.255 918.042 457.078 918.562C456.901 919.083 456.643 919.539 456.305 919.93C455.966 920.315 455.555 920.617 455.07 920.836C454.586 921.049 454.036 921.156 453.422 921.156C452.802 921.156 452.247 921.049 451.758 920.836C451.273 920.617 450.862 920.315 450.523 919.93C450.185 919.539 449.927 919.083 449.75 918.562C449.573 918.042 449.484 917.477 449.484 916.867ZM451.367 916.688V916.867C451.367 917.247 451.406 917.607 451.484 917.945C451.562 918.284 451.685 918.581 451.852 918.836C452.018 919.091 452.232 919.292 452.492 919.438C452.753 919.583 453.062 919.656 453.422 919.656C453.771 919.656 454.073 919.583 454.328 919.438C454.589 919.292 454.802 919.091 454.969 918.836C455.135 918.581 455.258 918.284 455.336 917.945C455.419 917.607 455.461 917.247 455.461 916.867V916.688C455.461 916.312 455.419 915.958 455.336 915.625C455.258 915.286 455.133 914.987 454.961 914.727C454.794 914.466 454.581 914.263 454.32 914.117C454.065 913.966 453.76 913.891 453.406 913.891C453.052 913.891 452.745 913.966 452.484 914.117C452.229 914.263 452.018 914.466 451.852 914.727C451.685 914.987 451.562 915.286 451.484 915.625C451.406 915.958 451.367 916.312 451.367 916.688ZM460.789 914.352V921H458.906V912.547H460.68L460.789 914.352ZM460.453 916.461L459.844 916.453C459.849 915.854 459.932 915.305 460.094 914.805C460.26 914.305 460.49 913.875 460.781 913.516C461.078 913.156 461.432 912.88 461.844 912.688C462.255 912.49 462.714 912.391 463.219 912.391C463.625 912.391 463.992 912.448 464.32 912.562C464.654 912.672 464.938 912.852 465.172 913.102C465.411 913.352 465.594 913.677 465.719 914.078C465.844 914.474 465.906 914.961 465.906 915.539V921H464.016V915.531C464.016 915.125 463.956 914.805 463.836 914.57C463.721 914.331 463.552 914.161 463.328 914.062C463.109 913.958 462.836 913.906 462.508 913.906C462.185 913.906 461.896 913.974 461.641 914.109C461.385 914.245 461.169 914.43 460.992 914.664C460.82 914.898 460.688 915.169 460.594 915.477C460.5 915.784 460.453 916.112 460.453 916.461ZM469.695 914.352V921H467.812V912.547H469.586L469.695 914.352ZM469.359 916.461L468.75 916.453C468.755 915.854 468.839 915.305 469 914.805C469.167 914.305 469.396 913.875 469.688 913.516C469.984 913.156 470.339 912.88 470.75 912.688C471.161 912.49 471.62 912.391 472.125 912.391C472.531 912.391 472.898 912.448 473.227 912.562C473.56 912.672 473.844 912.852 474.078 913.102C474.318 913.352 474.5 913.677 474.625 914.078C474.75 914.474 474.812 914.961 474.812 915.539V921H472.922V915.531C472.922 915.125 472.862 914.805 472.742 914.57C472.628 914.331 472.458 914.161 472.234 914.062C472.016 913.958 471.742 913.906 471.414 913.906C471.091 913.906 470.802 913.974 470.547 914.109C470.292 914.245 470.076 914.43 469.898 914.664C469.727 914.898 469.594 915.169 469.5 915.477C469.406 915.784 469.359 916.112 469.359 916.461ZM480.461 921.156C479.836 921.156 479.271 921.055 478.766 920.852C478.266 920.643 477.839 920.354 477.484 919.984C477.135 919.615 476.867 919.18 476.68 918.68C476.492 918.18 476.398 917.641 476.398 917.062V916.75C476.398 916.089 476.495 915.49 476.688 914.953C476.88 914.417 477.148 913.958 477.492 913.578C477.836 913.193 478.242 912.898 478.711 912.695C479.18 912.492 479.688 912.391 480.234 912.391C480.839 912.391 481.367 912.492 481.82 912.695C482.273 912.898 482.648 913.185 482.945 913.555C483.247 913.919 483.471 914.354 483.617 914.859C483.768 915.365 483.844 915.922 483.844 916.531V917.336H477.312V915.984H481.984V915.836C481.974 915.497 481.906 915.18 481.781 914.883C481.661 914.586 481.477 914.346 481.227 914.164C480.977 913.982 480.643 913.891 480.227 913.891C479.914 913.891 479.635 913.958 479.391 914.094C479.151 914.224 478.951 914.414 478.789 914.664C478.628 914.914 478.503 915.216 478.414 915.57C478.331 915.919 478.289 916.312 478.289 916.75V917.062C478.289 917.432 478.339 917.776 478.438 918.094C478.542 918.406 478.693 918.68 478.891 918.914C479.089 919.148 479.328 919.333 479.609 919.469C479.891 919.599 480.211 919.664 480.57 919.664C481.023 919.664 481.427 919.573 481.781 919.391C482.135 919.208 482.443 918.951 482.703 918.617L483.695 919.578C483.513 919.844 483.276 920.099 482.984 920.344C482.693 920.583 482.336 920.779 481.914 920.93C481.497 921.081 481.013 921.156 480.461 921.156ZM488.766 919.656C489.073 919.656 489.349 919.596 489.594 919.477C489.844 919.352 490.044 919.18 490.195 918.961C490.352 918.742 490.438 918.49 490.453 918.203H492.227C492.216 918.75 492.055 919.247 491.742 919.695C491.43 920.143 491.016 920.5 490.5 920.766C489.984 921.026 489.414 921.156 488.789 921.156C488.143 921.156 487.581 921.047 487.102 920.828C486.622 920.604 486.224 920.297 485.906 919.906C485.589 919.516 485.349 919.065 485.188 918.555C485.031 918.044 484.953 917.497 484.953 916.914V916.641C484.953 916.057 485.031 915.51 485.188 915C485.349 914.484 485.589 914.031 485.906 913.641C486.224 913.25 486.622 912.945 487.102 912.727C487.581 912.503 488.141 912.391 488.781 912.391C489.458 912.391 490.052 912.526 490.562 912.797C491.073 913.062 491.474 913.435 491.766 913.914C492.062 914.388 492.216 914.94 492.227 915.57H490.453C490.438 915.258 490.359 914.977 490.219 914.727C490.083 914.471 489.891 914.268 489.641 914.117C489.396 913.966 489.102 913.891 488.758 913.891C488.378 913.891 488.062 913.969 487.812 914.125C487.562 914.276 487.367 914.484 487.227 914.75C487.086 915.01 486.984 915.305 486.922 915.633C486.865 915.956 486.836 916.292 486.836 916.641V916.914C486.836 917.263 486.865 917.602 486.922 917.93C486.979 918.258 487.078 918.552 487.219 918.812C487.365 919.068 487.562 919.273 487.812 919.43C488.062 919.581 488.38 919.656 488.766 919.656ZM497.547 912.547V913.922H492.781V912.547H497.547ZM494.156 910.477H496.039V918.664C496.039 918.924 496.076 919.125 496.148 919.266C496.227 919.401 496.333 919.492 496.469 919.539C496.604 919.586 496.763 919.609 496.945 919.609C497.076 919.609 497.201 919.602 497.32 919.586C497.44 919.57 497.536 919.555 497.609 919.539L497.617 920.977C497.461 921.023 497.279 921.065 497.07 921.102C496.867 921.138 496.633 921.156 496.367 921.156C495.935 921.156 495.552 921.081 495.219 920.93C494.885 920.773 494.625 920.521 494.438 920.172C494.25 919.823 494.156 919.359 494.156 918.781V910.477ZM501.016 912.547V921H499.125V912.547H501.016ZM499 910.328C499 910.042 499.094 909.805 499.281 909.617C499.474 909.424 499.74 909.328 500.078 909.328C500.411 909.328 500.674 909.424 500.867 909.617C501.06 909.805 501.156 910.042 501.156 910.328C501.156 910.609 501.06 910.844 500.867 911.031C500.674 911.219 500.411 911.312 500.078 911.312C499.74 911.312 499.474 911.219 499.281 911.031C499.094 910.844 499 910.609 499 910.328ZM502.719 916.867V916.688C502.719 916.078 502.807 915.513 502.984 914.992C503.161 914.466 503.417 914.01 503.75 913.625C504.089 913.234 504.5 912.932 504.984 912.719C505.474 912.5 506.026 912.391 506.641 912.391C507.26 912.391 507.812 912.5 508.297 912.719C508.786 912.932 509.201 913.234 509.539 913.625C509.878 914.01 510.135 914.466 510.312 914.992C510.49 915.513 510.578 916.078 510.578 916.688V916.867C510.578 917.477 510.49 918.042 510.312 918.562C510.135 919.083 509.878 919.539 509.539 919.93C509.201 920.315 508.789 920.617 508.305 920.836C507.82 921.049 507.271 921.156 506.656 921.156C506.036 921.156 505.482 921.049 504.992 920.836C504.508 920.617 504.096 920.315 503.758 919.93C503.419 919.539 503.161 919.083 502.984 918.562C502.807 918.042 502.719 917.477 502.719 916.867ZM504.602 916.688V916.867C504.602 917.247 504.641 917.607 504.719 917.945C504.797 918.284 504.919 918.581 505.086 918.836C505.253 919.091 505.466 919.292 505.727 919.438C505.987 919.583 506.297 919.656 506.656 919.656C507.005 919.656 507.307 919.583 507.562 919.438C507.823 919.292 508.036 919.091 508.203 918.836C508.37 918.581 508.492 918.284 508.57 917.945C508.654 917.607 508.695 917.247 508.695 916.867V916.688C508.695 916.312 508.654 915.958 508.57 915.625C508.492 915.286 508.367 914.987 508.195 914.727C508.029 914.466 507.815 914.263 507.555 914.117C507.299 913.966 506.995 913.891 506.641 913.891C506.286 913.891 505.979 913.966 505.719 914.117C505.464 914.263 505.253 914.466 505.086 914.727C504.919 914.987 504.797 915.286 504.719 915.625C504.641 915.958 504.602 916.312 504.602 916.688ZM514.023 914.352V921H512.141V912.547H513.914L514.023 914.352ZM513.688 916.461L513.078 916.453C513.083 915.854 513.167 915.305 513.328 914.805C513.495 914.305 513.724 913.875 514.016 913.516C514.312 913.156 514.667 912.88 515.078 912.688C515.49 912.49 515.948 912.391 516.453 912.391C516.859 912.391 517.227 912.448 517.555 912.562C517.888 912.672 518.172 912.852 518.406 913.102C518.646 913.352 518.828 913.677 518.953 914.078C519.078 914.474 519.141 914.961 519.141 915.539V921H517.25V915.531C517.25 915.125 517.19 914.805 517.07 914.57C516.956 914.331 516.786 914.161 516.562 914.062C516.344 913.958 516.07 913.906 515.742 913.906C515.419 913.906 515.13 913.974 514.875 914.109C514.62 914.245 514.404 914.43 514.227 914.664C514.055 914.898 513.922 915.169 513.828 915.477C513.734 915.784 513.688 916.112 513.688 916.461ZM521.141 920.062C521.141 919.771 521.24 919.526 521.438 919.328C521.635 919.125 521.904 919.023 522.242 919.023C522.586 919.023 522.854 919.125 523.047 919.328C523.245 919.526 523.344 919.771 523.344 920.062C523.344 920.354 523.245 920.599 523.047 920.797C522.854 920.995 522.586 921.094 522.242 921.094C521.904 921.094 521.635 920.995 521.438 920.797C521.24 920.599 521.141 920.354 521.141 920.062Z" fill="#DCDCE4"/>
<rect x="340" y="946" width="16" height="8" rx="4" fill="#E0EAFF"/>
<rect x="360" y="946" width="8" height="8" rx="4" fill="#E0EAFF" fill-opacity="0.5"/>
<rect x="372" y="946" width="8" height="8" rx="4" fill="#E0EAFF" fill-opacity="0.5"/>
<defs>
<radialGradient id="paint0_radial_85_11548" cx="0" cy="0" r="1" gradientUnits="userSpaceOnUse" gradientTransform="translate(360 512) rotate(90) scale(303)">
<stop stop-color="#444CE7" stop-opacity="0.81"/>
<stop offset="1" stop-color="#444CE7" stop-opacity="0.29"/>
</radialGradient>
<linearGradient id="paint1_linear_85_11548" x1="232.047" y1="209" x2="417.757" y2="806.559" gradientUnits="userSpaceOnUse">
<stop stop-color="#444CE7" stop-opacity="0.81"/>
<stop offset="1" stop-opacity="0"/>
</linearGradient>
<radialGradient id="paint2_radial_85_11548" cx="0" cy="0" r="1" gradientUnits="userSpaceOnUse" gradientTransform="translate(360 511) rotate(90) scale(264)">
<stop stop-color="#0B9E55" stop-opacity="0.81"/>
<stop offset="1" stop-color="#44E74F" stop-opacity="0.29"/>
</radialGradient>
<linearGradient id="paint3_linear_85_11548" x1="360" y1="247" x2="413.333" y2="745.667" gradientUnits="userSpaceOnUse">
<stop stop-color="#A4FDA4"/>
<stop offset="1" stop-color="#44E782" stop-opacity="0.81"/>
</linearGradient>
<clipPath id="clip0_85_11548">
<rect width="586" height="369" fill="white" transform="translate(67 327)"/>
</clipPath>
</defs>
</svg>
