<svg width="60" height="60" viewBox="0 0 60 60" fill="none" xmlns="http://www.w3.org/2000/svg">
<path d="M30 55C43.8071 55 55 43.8071 55 30C55 16.1929 43.8071 5 30 5C16.1929 5 5 16.1929 5 30C5 43.8071 16.1929 55 30 55Z" stroke="#8AE700" stroke-width="4" stroke-linecap="round" stroke-linejoin="round"/>
<path d="M25 22.5003C24.9998 21.7234 25.1807 20.9571 25.5283 20.2622C25.8758 19.5673 26.3806 18.963 27.0024 18.4972C27.6242 18.0314 28.3461 17.717 29.1106 17.5788C29.8752 17.4406 30.6614 17.4824 31.407 17.7011C32.1525 17.9197 32.8369 18.309 33.4057 18.8383C33.9745 19.3675 34.4122 20.022 34.684 20.7498C34.9559 21.4776 35.0543 22.2588 34.9716 23.0314C34.8889 23.8039 34.6273 24.5465 34.2075 25.2003C32.7125 27.5253 30 29.7403 30 32.5003V33.7503M29.98 42.5003H30.0025" stroke="#8AE700" stroke-width="4" stroke-linecap="round" stroke-linejoin="round"/>
</svg>
