<svg width="32" height="28" viewBox="0 0 32 28" fill="none" xmlns="http://www.w3.org/2000/svg">
<path d="M30 12.0006H6.28L13.54 3.28055C13.8795 2.87212 14.0428 2.34556 13.994 1.8167C13.9453 1.28785 13.6884 0.800028 13.28 0.460551C12.8716 0.121074 12.345 -0.0422496 11.8162 0.00650988C11.2873 0.0552693 10.7995 0.312118 10.46 0.720552L0.46 12.7206C0.392721 12.816 0.332559 12.9163 0.28 13.0206C0.28 13.1206 0.28 13.1806 0.14 13.2806C0.0493473 13.5099 0.00188224 13.754 0 14.0006C0.00188224 14.2471 0.0493473 14.4912 0.14 14.7206C0.14 14.8206 0.14 14.8806 0.28 14.9806C0.332559 15.0848 0.392721 15.1851 0.46 15.2806L10.46 27.2806C10.648 27.5063 10.8835 27.6879 11.1497 27.8123C11.4159 27.9368 11.7062 28.001 12 28.0006C12.4673 28.0015 12.9202 27.8387 13.28 27.5406C13.4825 27.3727 13.6499 27.1665 13.7726 26.9338C13.8953 26.7011 13.9709 26.4464 13.9951 26.1845C14.0192 25.9225 13.9915 25.6584 13.9134 25.4072C13.8353 25.156 13.7084 24.9226 13.54 24.7206L6.28 16.0006H30C30.5304 16.0006 31.0391 15.7898 31.4142 15.4148C31.7893 15.0397 32 14.531 32 14.0006C32 13.4701 31.7893 12.9614 31.4142 12.5863C31.0391 12.2113 30.5304 12.0006 30 12.0006Z" fill="white"/>
</svg>
